<?xml version="1.0" encoding="UTF-8" standalone="no"?>
<svg
   xmlns:dc="http://purl.org/dc/elements/1.1/"
   xmlns:cc="http://creativecommons.org/ns#"
   xmlns:rdf="http://www.w3.org/1999/02/22-rdf-syntax-ns#"
   xmlns:svg="http://www.w3.org/2000/svg"
   xmlns="http://www.w3.org/2000/svg"
   xmlns:sodipodi="http://sodipodi.sourceforge.net/DTD/sodipodi-0.dtd"
   xmlns:inkscape="http://www.inkscape.org/namespaces/inkscape"
   viewBox="0 0 24 24"
   version="1.1"
   id="svg4"
   sodipodi:docname="github.svg"
   inkscape:version="0.92.5 (2060ec1f9f, 2020-04-08)">
  <metadata
     id="metadata10">
    <rdf:RDF>
      <cc:Work
         rdf:about="">
        <dc:format>image/svg+xml</dc:format>
        <dc:type
           rdf:resource="http://purl.org/dc/dcmitype/StillImage" />
      </cc:Work>
    </rdf:RDF>
  </metadata>
  <defs
     id="defs8" />
  <sodipodi:namedview
     pagecolor="#ffffff"
     bordercolor="#666666"
     borderopacity="1"
     objecttolerance="10"
     gridtolerance="10"
     guidetolerance="10"
     inkscape:pageopacity="0"
     inkscape:pageshadow="2"
     inkscape:window-width="674"
     inkscape:window-height="480"
     id="namedview6"
     showgrid="false"
     inkscape:zoom="9.8333333"
     inkscape:cx="-3.1525424"
     inkscape:cy="12"
     inkscape:window-x="36"
     inkscape:window-y="0"
     inkscape:window-maximized="0"
     inkscape:current-layer="svg4" />
  <path
     d="M 21.13697,4.5707835 A 4.3715529,4.3715529 0 0 0 20.844237,4.2217564 4.9680402,4.9680402 0 0 0 21.080675,3.3660771 5.9486712,5.9486712 0 0 0 20.686612,0.21357448 c 0,0 -1.261001,-0.3940628 -4.154548,1.55373342 A 14.047495,14.047495 0 0 0 12.76032,1.2606557 14.191092,14.191092 0 0 0 8.9773164,1.7673079 C 6.0837698,-0.20300622 4.8227688,0.21357448 4.8227688,0.21357448 A 5.9260632,5.9260632 0 0 0 4.4287059,3.3323003 4.7403169,4.7403169 0 0 0 4.6764026,4.2217564 C 4.5750721,4.3343458 4.4737417,4.4581941 4.3836702,4.5707835 a 5.7867901,5.7867901 0 0 0 -1.2610011,3.7154499 8.65389,8.65389 0 0 0 0.045036,0.957009 c 0.3602185,4.9877096 3.6816727,6.1473806 6.8454339,6.5076666 a 2.8795747,2.8795747 0 0 0 -0.8669376,1.564992 4.5281535,4.5281535 0 0 0 -0.146367,1.227224 v 1.474437 C 7.7408378,20.129442 6.448019,19.946237 6.0475273,18.822606 A 6.4115261,6.4115261 0 0 0 3.9821089,16.106826 1.3273162,1.3273162 0 0 1 3.7918329,15.980388 1.1274813,1.1274813 0 0 0 2.7440085,15.253612 h -0.00542 a 1.1254997,1.1254997 0 0 0 -1.1258938,1.1204 c -0.00439,0.914789 0.9109494,1.505219 1.2864237,1.706427 a 5.0288047,5.0288047 0 0 1 1.0390311,1.529414 c 0.4101181,1.152285 1.6091274,2.90269 5.0280399,2.675124 0.0011,0.03957 0.0023,0.07696 0.0028,0.111047 l 0.0049,0.301266 a 1.1256011,1.1256011 0 0 0 1.1258936,1.125894 l 0.0035,-6.87e-4 v 7.21e-4 h 5.304221 a 1.1256011,1.1256011 0 0 0 1.125893,-1.125894 c 0,0 0.0082,-3.557453 0.0082,-4.154143 a 4.5308331,4.5308331 0 0 0 -0.146366,-1.227224 l -0.002,-0.0069 0.0038,0.0069 c -0.0097,-0.03941 -0.02447,-0.07153 -0.03505,-0.109741 a 2.8509095,2.8509095 0 0 0 -0.833713,-1.455319 l 0.01306,0.0235 c -0.0077,-0.007 -0.01491,-0.01676 -0.02261,-0.0235 3.163762,-0.360286 6.46263,-1.542474 6.822916,-6.5076656 a 8.6544642,8.6544642 0 0 0 0.04504,-0.95701 5.8891001,5.8891001 0 0 0 -1.249719,-3.7154379 z"
     data-name="Brand Logos"
     id="path2"
     style="fill:#f2f2f2;stroke-width:1"
     inkscape:connector-curvature="0" />
</svg>
