<?xml version="1.0" encoding="UTF-8" standalone="no"?>
<!-- Created with Inkscape (http://www.inkscape.org/) -->

<svg
   xmlns:dc="http://purl.org/dc/elements/1.1/"
   xmlns:cc="http://creativecommons.org/ns#"
   xmlns:rdf="http://www.w3.org/1999/02/22-rdf-syntax-ns#"
   xmlns:svg="http://www.w3.org/2000/svg"
   xmlns="http://www.w3.org/2000/svg"
   xmlns:xlink="http://www.w3.org/1999/xlink"
   xmlns:sodipodi="http://sodipodi.sourceforge.net/DTD/sodipodi-0.dtd"
   xmlns:inkscape="http://www.inkscape.org/namespaces/inkscape"
   width="522.60052mm"
   height="201.4664mm"
   viewBox="0 0 313.5603 120.87983"
   version="1.1"
   id="svg5"
   sodipodi:docname="background.svg"
   inkscape:version="0.92.5 (2060ec1f9f, 2020-04-08)">
  <metadata
     id="metadata7">
    <rdf:RDF>
      <cc:Work
         rdf:about="">
        <dc:format>image/svg+xml</dc:format>
        <dc:type
           rdf:resource="http://purl.org/dc/dcmitype/StillImage" />
        <dc:title></dc:title>
      </cc:Work>
    </rdf:RDF>
  </metadata>
  <sodipodi:namedview
     id="namedview6"
     pagecolor="#ffffff"
     bordercolor="#666666"
     borderopacity="1.0"
     inkscape:pageshadow="2"
     inkscape:pageopacity="0.0"
     inkscape:pagecheckerboard="0"
     inkscape:document-units="mm"
     showgrid="false"
     inkscape:zoom="0.56467215"
     inkscape:cx="1767.3648"
     inkscape:cy="237.76692"
     inkscape:window-width="1324"
     inkscape:window-height="740"
     inkscape:window-x="36"
     inkscape:window-y="0"
     inkscape:window-maximized="1"
     inkscape:current-layer="svg5"
     fit-margin-top="-0.2"
     fit-margin-left="-0.6"
     fit-margin-right="0"
     fit-margin-bottom="0"
     scale-x="0.3" />
  <defs
     id="defs2">
    <inkscape:path-effect
       effect="bspline"
       id="path-effect860"
       is_visible="true"
       weight="33.333333"
       steps="2"
       helper_size="0"
       apply_no_weight="true"
       apply_with_weight="true"
       only_selected="false" />
    <inkscape:path-effect
       effect="bspline"
       id="path-effect848"
       is_visible="true"
       weight="33.333333"
       steps="2"
       helper_size="0"
       apply_no_weight="true"
       apply_with_weight="true"
       only_selected="false" />
    <linearGradient
       inkscape:collect="always"
       id="linearGradient840">
      <stop
         style="stop-color:#345e97;stop-opacity:1;"
         offset="0"
         id="stop836" />
      <stop
         style="stop-color:#345e97;stop-opacity:0;"
         offset="1"
         id="stop838" />
    </linearGradient>
    <linearGradient
       inkscape:collect="always"
       xlink:href="#linearGradient840"
       id="linearGradient842"
       x1="-34.715546"
       y1="139.16331"
       x2="244.46225"
       y2="139.16331"
       gradientUnits="userSpaceOnUse"
       gradientTransform="translate(11.732493,3.5708266)" />
  </defs>
  <g
     id="layer1"
     transform="rotate(180,128.02862,94.282999)"
     style="fill:#1e3a8a;fill-opacity:0.98039216;stroke:url(#linearGradient842);stroke-opacity:1" />
  <g
     style="fill:#1e3a8a;fill-opacity:0;stroke:#1e3a8a;stroke-opacity:0"
     transform="rotate(180,128.02862,94.283)"
     id="g834">
    <path
       sodipodi:nodetypes="ccssssscccc"
       inkscape:connector-curvature="0"
       transform="matrix(0.26458333,0,0,0.26458333,-34.324396,101.34577)"
       d="M 1.5281373,-20.262447 -0.9763488,211.66345 c 7.0409126,8.167 74.7795418,91.21523 108.0512388,102.11759 59.79352,19.59296 92.91485,-88.28893 194.6131,-96.15863 101.69825,-7.86966 236.90729,101.80598 303.64245,67.52011 66.73519,-34.28587 105.06527,-74.78383 161.30823,-69.56049 56.24292,5.22335 120.37628,31.12217 195.22656,11.94141 44.22037,-11.33167 92.14537,-38.39576 91.25777,-64.70899 h 0.039 l -7.5135,-193.094841 z"
       style="fill:#1e3a8a;fill-opacity:0;stroke:#1e3a8a;stroke-width:0.99999899px;stroke-linecap:butt;stroke-linejoin:miter;stroke-opacity:0"
       id="path832" />
  </g>
  <path
     style="fill:#1e3a8a;fill-opacity:1;stroke:none;stroke-width:0.12103575px;stroke-linecap:butt;stroke-linejoin:miter;stroke-opacity:1"
     d="M 0.42073231,53.275625 C 0.17076749,49.311706 -0.45362327,43.039193 0.93772804,38.832019 2.3290794,34.624845 5.7361406,32.482856 13.508425,31.952439 21.28071,31.422021 33.418622,32.503 45.556479,33.583974 c 0,0 0,0 0,0 3.313139,-0.04298 6.626386,-0.08596 10.343552,-0.262946 3.717166,-0.176985 7.838282,-0.487962 13.494312,-1.422984 5.65603,-0.935022 12.847279,-2.494123 19.380978,-3.800722 6.533698,-1.306598 12.218129,-2.326315 15.252269,-2.870601 3.03413,-0.544286 3.03413,-0.544286 3.03413,-0.544286 0,0 0,0 0,0 0,0 0,0 0,0 9.50516,-1.361907 19.01053,-2.723844 26.38289,-2.895096 7.37237,-0.171251 12.61239,0.848173 18.54936,2.04385 5.93698,1.195677 12.57089,2.567598 17.92695,4.301651 5.35606,1.734053 9.43403,3.830152 13.39693,4.051796 3.9629,0.221645 7.81087,-1.431096 12.68238,-1.612269 4.87151,-0.181173 10.76679,1.109073 16.66211,2.399328 0,0 0,0 0,0 0,0 0,0 0,0 0,0 0,0 0,0 7.05906,-2.001311 14.11838,-4.002694 20.09432,-5.262712 5.97595,-1.260018 10.86887,-1.778799 15.76188,-2.297589 0,0 0,0 0,0 11.02995,-1.673 22.05996,-3.346009 27.35667,-0.238866 5.2967,3.107143 4.86022,10.994331 4.64198,14.938077 -0.21825,3.943746 -0.21825,3.943746 -0.21825,12.888662 0,8.944916 0,26.837767 0,35.717212 0,8.879446 0,8.746919 -0.19848,8.680733 -0.19848,-0.06618 -0.33149,-0.06618 -44.75523,-0.198793 C 190.92149,97.06581 102.44511,96.800911 56.458563,96.680094 10.472017,96.559278 7.0283371,96.582704 4.8027631,96.570992 2.5771892,96.559281 1.5698303,96.512426 0.96068904,96.488995 0.35154782,96.465563 0.14072703,96.465563 0.11728241,90.475114 0.09383779,84.484665 0.25771068,72.521946 0.40195817,65.708421 0.54620565,58.894897 0.67069714,57.239543 0.42073231,53.275625 Z"
     id="path846"
     inkscape:connector-curvature="0"
     inkscape:path-effect="#path-effect848"
     inkscape:original-d="M 0.79517427,55.58438 C 0.17091803,49.311691 -0.4534727,43.039178 -1.0779978,36.766843 2.3290727,34.624834 5.7361342,32.482846 9.1429088,30.341052 21.28072,31.421906 45.556479,33.583974 45.556479,33.583974 v 0 c 0,0 6.626385,-0.08606 9.939418,-0.128939 4.121293,-0.311084 8.242409,-0.622062 12.363319,-0.932931 7.191142,-1.559151 14.382391,-3.118253 21.57329,-4.677206 5.8765,-1.054249 11.560934,-2.073967 17.629214,-3.162463 1.4e-4,-1.03e-4 0,0 0,0 v 0 0 c 0,0 19.01052,-2.723925 28.51549,-4.085722 5.23979,1.019249 10.47981,2.038672 15.71954,3.058172 6.63423,1.371853 13.26814,2.743774 19.90214,4.115847 4.07816,2.096023 8.15613,4.192121 12.23389,6.288288 3.84795,-1.652774 7.69592,-3.305516 11.5436,-4.95809 5.89539,1.290136 17.68596,3.870765 17.68596,3.870765 v 0 0 0 c 0,0 14.11836,-4.002752 21.17718,-6.003932 4.89308,-0.518886 14.67902,-1.556369 14.67902,-1.556369 v 0 c 0,0 22.05995,-3.346089 33.08985,-5.018999 -0.43635,7.887283 -0.87282,15.774472 -1.30945,23.661956 1.4e-4,-1.03e-4 1.4e-4,-1.03e-4 0,0 1.5e-4,17.889832 1.5e-4,35.782683 0,53.674262 1.5e-4,-0.132688 1.5e-4,-0.265215 0,-0.397586 -0.39696,-1.59e-4 -0.52997,-1.59e-4 -0.79518,0 -88.58227,-0.265376 -177.05865,-0.530276 -265.58821,-0.795175 -3.443534,0.02327 -6.8872139,0.0467 -10.3310589,0.07028 -1.0072941,-0.04702 -2.0146532,-0.09387 -3.02221799,-0.140569 -0.21072529,-1.59e-4 -0.42154608,-1.59e-4 -0.63255725,0 C 0.09399441,84.484667 0.25786726,72.521948 0.42170484,60.550375 0.54635173,58.894908 0.6708432,57.239554 0.79517427,55.58438 Z"
     transform="matrix(1.120408,0,0,1.5354078,-0.48887842,-28.684398)"
     sodipodi:nodetypes="cccccccccccccccccccccccccccccccccccc" />
</svg>
