<?xml version="1.0" encoding="UTF-8" standalone="no"?>
<!-- Generator: Adobe Illustrator 19.0.0, SVG Export Plug-In . SVG Version: 6.00 Build 0)  -->

<svg
   xmlns:dc="http://purl.org/dc/elements/1.1/"
   xmlns:cc="http://creativecommons.org/ns#"
   xmlns:rdf="http://www.w3.org/1999/02/22-rdf-syntax-ns#"
   xmlns:svg="http://www.w3.org/2000/svg"
   xmlns="http://www.w3.org/2000/svg"
   xmlns:sodipodi="http://sodipodi.sourceforge.net/DTD/sodipodi-0.dtd"
   xmlns:inkscape="http://www.inkscape.org/namespaces/inkscape"
   version="1.1"
   id="Capa_1"
   x="0px"
   y="0px"
   viewBox="0 0 512 359.79999"
   xml:space="preserve"
   sodipodi:docname="cloud.svg"
   inkscape:version="0.92.5 (2060ec1f9f, 2020-04-08)"
   width="512"
   height="359.79999"><metadata
   id="metadata43"><rdf:RDF><cc:Work
       rdf:about=""><dc:format>image/svg+xml</dc:format><dc:type
         rdf:resource="http://purl.org/dc/dcmitype/StillImage" /><dc:title></dc:title></cc:Work></rdf:RDF></metadata><defs
   id="defs41" /><sodipodi:namedview
   pagecolor="#ffffff"
   bordercolor="#666666"
   borderopacity="1"
   objecttolerance="10"
   gridtolerance="10"
   guidetolerance="10"
   inkscape:pageopacity="0"
   inkscape:pageshadow="2"
   inkscape:window-width="975"
   inkscape:window-height="480"
   id="namedview39"
   showgrid="false"
   inkscape:zoom="0.4609375"
   inkscape:cx="-30.372881"
   inkscape:cy="180"
   inkscape:window-x="36"
   inkscape:window-y="0"
   inkscape:window-maximized="0"
   inkscape:current-layer="Capa_1"
   fit-margin-top="-0.2"
   fit-margin-left="0"
   fit-margin-right="0"
   fit-margin-bottom="0" />
<g
   id="g6"
   style="fill:#1a1a1a"
   transform="translate(0,-76.2)">
	<g
   id="g4"
   style="fill:#1a1a1a">
		<path
   d="M 448.779,235.5 C 464.04,152.252 399.905,76 316,76 c -48.485,0 -91.873,25.721 -115.782,65.534 -32.612,-10.538 -66.144,-6.047 -93.77,12.971 C 78.837,173.512 62.347,203.606 61.012,236.521 24.118,253.902 0,290.638 0,331 0,337.913 0.678,344.828 2.014,351.555 11.733,400.485 55.044,436 105,436 h 301 c 58.448,0 106,-47.103 106,-105 0,-41.314 -25.065,-78.607 -63.221,-95.5 z M 406,406 H 105 c -41,0 -75,-33.235 -75,-75 0,-31.25 20.537,-59.52 51.104,-70.345 l 10.65,-3.772 -0.685,-11.278 c -1.611,-26.5 10.498,-51.319 32.391,-66.39 23.151,-15.938 51.552,-17.039 77.549,-5.251 l 13.512,6.127 6.275,-13.444 C 237.992,129.806 275.362,106 316,106 c 57.897,0 105,47.103 105,105 0,17.126 -3.613,27.495 -7.608,41.224 11.185,5.806 12.995,6.882 16.761,8.172 C 461.164,271.018 482,299.392 482,331 c 0,41.355 -34.094,75 -76,75 z"
   id="path2"
   style="fill:#1a1a1a"
   inkscape:connector-curvature="0" />
	</g>
</g>
<g
   id="g8"
   transform="translate(0,-76.2)">
</g>
<g
   id="g10"
   transform="translate(0,-76.2)">
</g>
<g
   id="g12"
   transform="translate(0,-76.2)">
</g>
<g
   id="g14"
   transform="translate(0,-76.2)">
</g>
<g
   id="g16"
   transform="translate(0,-76.2)">
</g>
<g
   id="g18"
   transform="translate(0,-76.2)">
</g>
<g
   id="g20"
   transform="translate(0,-76.2)">
</g>
<g
   id="g22"
   transform="translate(0,-76.2)">
</g>
<g
   id="g24"
   transform="translate(0,-76.2)">
</g>
<g
   id="g26"
   transform="translate(0,-76.2)">
</g>
<g
   id="g28"
   transform="translate(0,-76.2)">
</g>
<g
   id="g30"
   transform="translate(0,-76.2)">
</g>
<g
   id="g32"
   transform="translate(0,-76.2)">
</g>
<g
   id="g34"
   transform="translate(0,-76.2)">
</g>
<g
   id="g36"
   transform="translate(0,-76.2)">
</g>
</svg>