<?xml version="1.0" encoding="UTF-8" standalone="no"?>
<!-- Generator: Adobe Illustrator 19.0.0, SVG Export Plug-In . SVG Version: 6.00 Build 0)  -->

<svg
   xmlns:dc="http://purl.org/dc/elements/1.1/"
   xmlns:cc="http://creativecommons.org/ns#"
   xmlns:rdf="http://www.w3.org/1999/02/22-rdf-syntax-ns#"
   xmlns:svg="http://www.w3.org/2000/svg"
   xmlns="http://www.w3.org/2000/svg"
   xmlns:sodipodi="http://sodipodi.sourceforge.net/DTD/sodipodi-0.dtd"
   xmlns:inkscape="http://www.inkscape.org/namespaces/inkscape"
   version="1.1"
   id="Capa_1"
   x="0px"
   y="0px"
   viewBox="0 0 512 512"
   style="enable-background:new 0 0 512 512;"
   xml:space="preserve"
   sodipodi:docname="cloud.svg"
   inkscape:version="0.92.5 (2060ec1f9f, 2020-04-08)"><metadata
   id="metadata43"><rdf:RDF><cc:Work
       rdf:about=""><dc:format>image/svg+xml</dc:format><dc:type
         rdf:resource="http://purl.org/dc/dcmitype/StillImage" /></cc:Work></rdf:RDF></metadata><defs
   id="defs41" /><sodipodi:namedview
   pagecolor="#ffffff"
   bordercolor="#666666"
   borderopacity="1"
   objecttolerance="10"
   gridtolerance="10"
   guidetolerance="10"
   inkscape:pageopacity="0"
   inkscape:pageshadow="2"
   inkscape:window-width="674"
   inkscape:window-height="480"
   id="namedview39"
   showgrid="false"
   inkscape:zoom="0.4609375"
   inkscape:cx="-30.372881"
   inkscape:cy="256"
   inkscape:window-x="36"
   inkscape:window-y="0"
   inkscape:window-maximized="0"
   inkscape:current-layer="Capa_1" />
<g
   id="g6"
   style="fill:#1a1a1a">
	<g
   id="g4"
   style="fill:#1a1a1a">
		<path
   d="M448.779,235.5C464.04,152.252,399.905,76,316,76c-48.485,0-91.873,25.721-115.782,65.534    c-32.612-10.538-66.144-6.047-93.77,12.971c-27.611,19.007-44.101,49.101-45.436,82.016C24.118,253.902,0,290.638,0,331    c0,6.913,0.678,13.828,2.014,20.555C11.733,400.485,55.044,436,105,436h301c58.448,0,106-47.103,106-105    C512,289.686,486.935,252.393,448.779,235.5z M406,406H105c-41,0-75-33.235-75-75c0-31.25,20.537-59.52,51.104-70.345l10.65-3.772    l-0.685-11.278c-1.611-26.5,10.498-51.319,32.391-66.39c23.151-15.938,51.552-17.039,77.549-5.251l13.512,6.127l6.275-13.444    C237.992,129.806,275.362,106,316,106c57.897,0,105,47.103,105,105c0,17.126-3.613,27.495-7.608,41.224    c11.185,5.806,12.995,6.882,16.761,8.172C461.164,271.018,482,299.392,482,331C482,372.355,447.906,406,406,406z"
   id="path2"
   style="fill:#1a1a1a" />
	</g>
</g>
<g
   id="g8">
</g>
<g
   id="g10">
</g>
<g
   id="g12">
</g>
<g
   id="g14">
</g>
<g
   id="g16">
</g>
<g
   id="g18">
</g>
<g
   id="g20">
</g>
<g
   id="g22">
</g>
<g
   id="g24">
</g>
<g
   id="g26">
</g>
<g
   id="g28">
</g>
<g
   id="g30">
</g>
<g
   id="g32">
</g>
<g
   id="g34">
</g>
<g
   id="g36">
</g>
</svg>