<svg xmlns="http://www.w3.org/2000/svg" version="1.1" xmlns:xlink="http://www.w3.org/1999/xlink" xmlns:svgjs="http://svgjs.com/svgjs" width="1440" height="560" preserveAspectRatio="none" viewBox="0 0 1440 560"><g mask="url(&quot;#SvgjsMask1672&quot;)" fill="none"><rect width="1440" height="560" x="0" y="0" fill="url(#SvgjsLinearGradient1673)"></rect><path d="M280 117.5C253.39 136.9 232.8 114.33 217 140C182.8 195.58 161.77 229.84 180 280C193.27 316.51 235.31 313.33 280 313.33C297.52 313.33 289.65 294.33 304.42 280C359.65 226.43 360.32 177.53 420 177.53C485.27 177.53 488.57 227.49 554.32 280C558.57 283.39 556.93 289.33 560 289.33C563.27 289.33 562.85 284.09 567 280C632.85 215.07 624.89 170.93 700 151.29C761.39 135.24 780.94 212.33 840 208.63C871.06 206.68 880.23 172.22 880.23 140C880.23 115.76 866.87 100.05 840 95.7C776.76 85.46 770.2 107.52 700 110.83C630.2 114.12 621.1 133.91 560 108.89C485.77 78.49 429.33 30.79 429.33 0C429.33 -23.65 494.66 0 560 0C630 0 630 0 700 0C770 0 770 0 840 0C910 0 910 0 980 0C1050 0 1094.26 -34.46 1120 0C1146.55 35.54 1084.58 75.42 1084.58 140C1084.58 161.23 1102.7 171.61 1120 171.61C1136.39 171.61 1151.96 160.46 1151.96 140C1151.96 74.65 1092.65 35.44 1120 0C1146.67 -34.56 1190 0 1260 0C1330 0 1330 0 1400 0C1470 0 1505 -35 1540 0C1575 35 1540 70 1540 140C1540 210 1540 210 1540 280C1540 350 1540 350 1540 420C1540 490 1574.05 524.05 1540 560C1507.74 594.05 1472.89 562.47 1407.37 560C1402.89 559.83 1403.74 554.72 1400 554.72C1396.05 554.72 1396.74 559.82 1392 560C1326.74 562.46 1326 560 1260 560C1212.86 560 1205.83 575.28 1165.71 560C1135.83 548.62 1141.45 506.67 1120 506.67C1100.23 506.67 1110.25 549.72 1083.28 560C1040.25 576.39 1031.64 560 980 560C920.57 560 917.07 568.44 861.13 560C847.07 557.88 849.84 538.87 840 538.87C831.27 538.87 836.33 558.14 824 560C766.33 568.7 762 560 700 560C630 560 630 560 560 560C490 560 490 560 420 560C353.28 560 351.44 563.82 286.56 560C281.44 559.7 284.46 551.76 280 551.76C269.52 551.76 268.92 559.28 256.67 560C198.92 563.4 198.34 560 140 560C110.84 560 108.03 569.71 81.67 560C38.03 543.92 21.32 544.97 0 508.42C-19.52 474.97 0 464.21 0 420C0 350 0 350 0 280C0 210 0 210 0 140C0 70 -35 35 0 0C35 -35 70 0 140 0C210 0 210 0 280 0C344.51 0 409.02 -24.97 409.02 0C409.02 33.78 349.4 66.9 280 117.5" stroke="rgba(21, 66, 116, 0.8)" stroke-width="2"></path><path d="M1260 243.54C1238.8 243.54 1223.92 260.84 1223.92 280C1223.92 301.51 1237.87 324.87 1260 324.87C1293.95 324.87 1336.09 300.8 1336.09 280C1336.09 260.13 1294.88 243.54 1260 243.54" stroke="rgba(21, 66, 116, 0.8)" stroke-width="2"></path><path d="M0 25.45C0.53 12.47 -5.67 2.07 5.71 0C64.33 -10.66 72.86 0 140 0C210 0 210 0 280 0C310.19 0 340.39 -11.69 340.39 0C340.39 15.81 315.38 35.96 280 55C215.18 89.89 210.01 81.45 140 107.87C97.4 123.95 65.8 106.5 54.78 140C37.5 192.56 57.26 215.58 83.4 280C99.87 320.58 101.74 332.7 140 350C200.04 377.15 222.38 388.55 280 368.89C324.94 353.55 308.44 320.69 345.12 280C378.44 243.05 381.34 213.61 420 213.61C462.29 213.61 470.79 240.26 507.03 280C540.79 317.01 531.4 367.11 560 367.11C590.55 367.11 589.51 320.77 625.33 280C659.51 241.09 657.14 208.29 700 207.74C764.47 206.91 769.44 244.14 840 277.25C846.44 280.27 849.2 274.86 854 280C915.87 346.24 913.4 350.24 973.33 420C976.4 423.58 978.35 422.28 980 426.67C1004.64 492.28 1025.9 509.71 1025.9 560C1025.9 576.37 1002.95 560 980 560C953.59 560 948.17 573.07 927.17 560C878.17 529.49 880.59 472.83 840 472.83C804 472.83 815.75 534.01 774 560C745.75 577.59 737 560 700 560C638.34 560 630.88 572.32 576.67 560C560.88 556.41 568.41 528.18 560 528.18C551.54 528.18 558.82 556.39 542.93 560C488.82 572.3 481.46 560 420 560C380.63 560 372.39 577.1 341.25 560C302.39 538.67 321.01 492.98 280 483.14C220.38 468.84 207.33 520.41 140 511.72C67.33 502.35 59.56 486.04 0 447.02C-10.44 440.18 0 433.51 0 420C0 350 0 350 0 280C0 210 0 210 0 140C0 82.72 -2.33 82.47 0 25.45" stroke="rgba(21, 66, 116, 0.8)" stroke-width="2"></path><path d="M560 60.28C520.5 60.28 487.67 17.05 487.67 0C487.67 -13.09 523.84 0 560 0C618.65 0 677.3 -14.19 677.3 0C677.3 15.95 615.32 60.28 560 60.28" stroke="rgba(21, 66, 116, 0.8)" stroke-width="2"></path><path d="M840 51.39C789.45 15.37 724 13.42 724 0C724 -12.27 782 0 840 0C910 0 910 0 980 0C1013.54 0 1036.98 -22.67 1047.08 0C1068.18 47.33 1021.49 79.95 1042.41 140C1057.95 184.58 1082.57 173.21 1120 209.25C1155.28 243.21 1155.65 243.1 1187.84 280C1225.65 323.35 1215.12 365.79 1260 369.74C1321.2 375.13 1342.46 285.69 1400 298.67C1453.82 310.82 1482.73 365.15 1482.73 420C1482.73 460.16 1443.28 456.92 1400 488.68C1347.91 526.92 1348.12 531.41 1292 560C1278.12 567.07 1276 560 1260 560C1248.57 560 1245.03 567.7 1237.14 560C1175.03 499.37 1187.35 473.71 1120 423.33C1093.78 403.71 1068.89 443.05 1050 420C1010.14 371.38 1030.73 347.51 1002.5 280C995.73 263.81 988.93 267.85 980 252.61C947.91 197.85 956.55 191.87 920.46 140C886.55 91.26 887.68 85.37 840 51.39" stroke="rgba(21, 66, 116, 0.8)" stroke-width="2"></path><path d="M1190 140C1165.84 78.74 1156.2 44.27 1178.33 0C1191.2 -25.73 1219.16 0 1260 0C1330 0 1330 0 1400 0C1470 0 1484.36 -14.36 1540 0C1554.36 3.71 1552.61 25.1 1540 36.13C1482.61 86.35 1465.56 75.8 1400 122.5C1392.65 127.74 1401.84 135.37 1394.17 140C1331.84 177.66 1322.01 207.08 1260 207.08C1219.92 207.08 1206.67 182.28 1190 140" stroke="rgba(21, 66, 116, 0.8)" stroke-width="2"></path><path d="M420 387.33C392.9 387.33 367.03 402.55 367.03 420C367.03 438.48 392.71 459.2 420 459.2C450.81 459.2 483.23 438.37 483.23 420C483.23 402.43 451 387.33 420 387.33" stroke="rgba(21, 66, 116, 0.8)" stroke-width="2"></path><path d="M1499.47 560C1499.47 543.48 1528.71 506.9 1540 506.9C1548.97 506.9 1551.49 544.94 1540 560C1531.23 571.49 1499.47 570.03 1499.47 560" stroke="rgba(21, 66, 116, 0.8)" stroke-width="2"></path><path d="M140 50.49C104.91 50.49 77.14 14.19 77.14 0C77.14 -11.06 108.57 0 140 0C201.6 0 263.2 -12.13 263.2 0C263.2 13.11 197.94 50.49 140 50.49" stroke="rgba(21, 66, 116, 0.8)" stroke-width="2"></path><path d="M560 11.67C552.36 11.67 546 3.3 546 0C546 -2.53 553 0 560 0C571.35 0 582.7 -2.75 582.7 0C582.7 3.09 570.71 11.67 560 11.67" stroke="rgba(21, 66, 116, 0.8)" stroke-width="2"></path><path d="M840 7.09C831.39 7.09 824 1.85 824 0C824 -1.69 832 0 840 0C886.66 0 933.33 -1.77 933.33 0C933.33 1.78 886.05 7.09 840 7.09" stroke="rgba(21, 66, 116, 0.8)" stroke-width="2"></path><path d="M960.69 140C960.69 81.59 970.12 20 980 20C989.89 20 1000.24 81.73 1000.24 140C1000.24 159.99 989.94 176.52 980 176.52C970.17 176.52 960.69 159.85 960.69 140" stroke="rgba(21, 66, 116, 0.8)" stroke-width="2"></path><path d="M1228.04 140C1219.17 75.15 1222.97 60.02 1236.67 0C1238.95 -9.98 1248.34 0 1260 0C1293.34 0 1316.8 -22.57 1326.67 0C1347.42 47.43 1343.64 82.7 1321.25 140C1310.31 168.01 1288.31 170.63 1260 170.63C1241.7 170.63 1230.84 160.47 1228.04 140" stroke="rgba(21, 66, 116, 0.8)" stroke-width="2"></path><path d="M0 257.89C2.32 257.89 8.94 268.86 8.94 280C8.94 292.27 2.3 304.71 0 304.71C-2.17 304.71 0 292.36 0 280C0 268.94 -2.15 257.89 0 257.89" stroke="rgba(21, 66, 116, 0.8)" stroke-width="2"></path><path d="M385.81 280C385.81 262.82 402.35 249.69 420 249.69C439.31 249.69 459.73 262.47 459.73 280C459.73 302.13 438.98 329 420 329C402.02 329 385.81 302.47 385.81 280" stroke="rgba(21, 66, 116, 0.8)" stroke-width="2"></path><path d="M683.67 280C688.51 269.83 690.62 264.19 700 264.19C714.59 264.19 723.11 265.28 731.61 280C768.11 343.18 791.88 350.71 790 420C788.08 490.71 762.96 499.4 724 560C717.96 569.4 712 560 700 560C680 560 668.05 575.21 660 560C630.99 505.21 620.11 488.26 625.88 420C631.94 348.26 651.45 347.74 683.67 280" stroke="rgba(21, 66, 116, 0.8)" stroke-width="2"></path><path d="M1065 280C1065 258.7 1094.7 246.88 1120 246.88C1138.08 246.88 1151.75 260.87 1151.75 280C1151.75 310.91 1139.99 346.96 1120 346.96C1096.62 346.96 1065 308.74 1065 280" stroke="rgba(21, 66, 116, 0.8)" stroke-width="2"></path><path d="M1244.44 420C1244.44 414.9 1251.82 414.87 1260 414.62C1329.6 412.53 1331.19 412.74 1400 415.33C1402.78 415.43 1403.18 417.89 1403.18 420C1403.18 421.54 1402.04 422.34 1400 422.64C1330.45 432.84 1325.63 442.11 1260 441C1247.85 440.79 1244.44 428.09 1244.44 420" stroke="rgba(21, 66, 116, 0.8)" stroke-width="2"></path><path d="M395.94 560C395.94 550.47 406.26 529.2 420 529.2C437.07 529.2 457.56 551.32 457.56 560C457.56 566.72 438.78 560 420 560C407.97 560 395.94 565.87 395.94 560" stroke="rgba(21, 66, 116, 0.8)" stroke-width="2"></path></g><defs><mask id="SvgjsMask1672"><rect width="1440" height="560" fill="#ffffff"></rect></mask><linearGradient x1="15.28%" y1="-39.29%" x2="84.72%" y2="139.29%" gradientUnits="userSpaceOnUse" id="SvgjsLinearGradient1673"><stop stop-color="#0e2a47" offset="0"></stop><stop stop-color="rgba(0, 29, 66, 1)" offset="0.23"></stop><stop stop-color="rgba(6, 32, 64, 1)" offset="0.43"></stop><stop stop-color="rgba(0, 29, 66, 1)" offset="0.98"></stop></linearGradient></defs></svg>