<?xml version="1.0" encoding="UTF-8" standalone="no"?>
<!-- Created with Inkscape (http://www.inkscape.org/) -->

<svg
   xmlns:dc="http://purl.org/dc/elements/1.1/"
   xmlns:cc="http://creativecommons.org/ns#"
   xmlns:rdf="http://www.w3.org/1999/02/22-rdf-syntax-ns#"
   xmlns:svg="http://www.w3.org/2000/svg"
   xmlns="http://www.w3.org/2000/svg"
   xmlns:sodipodi="http://sodipodi.sourceforge.net/DTD/sodipodi-0.dtd"
   xmlns:inkscape="http://www.inkscape.org/namespaces/inkscape"
   version="1.1"
   id="svg2"
   width="51.992222"
   height="30.79771"
   viewBox="0 0 51.992222 30.79771"
   sodipodi:docname="logoo.svg"
   inkscape:version="0.92.5 (2060ec1f9f, 2020-04-08)">
  <metadata
     id="metadata8">
    <rdf:RDF>
      <cc:Work
         rdf:about="">
        <dc:format>image/svg+xml</dc:format>
        <dc:type
           rdf:resource="http://purl.org/dc/dcmitype/StillImage" />
        <dc:title></dc:title>
      </cc:Work>
    </rdf:RDF>
  </metadata>
  <defs
     id="defs6" />
  <sodipodi:namedview
     pagecolor="#ffffff"
     bordercolor="#666666"
     borderopacity="1"
     objecttolerance="10"
     gridtolerance="10"
     guidetolerance="10"
     inkscape:pageopacity="0"
     inkscape:pageshadow="2"
     inkscape:window-width="1324"
     inkscape:window-height="740"
     id="namedview4"
     showgrid="false"
     inkscape:zoom="4.9166667"
     inkscape:cx="34.998513"
     inkscape:cy="14.993096"
     inkscape:window-x="36"
     inkscape:window-y="0"
     inkscape:window-maximized="1"
     inkscape:current-layer="g30"
     fit-margin-bottom="-1.3"
     fit-margin-right="-0.9"
     fit-margin-top="0"
     fit-margin-left="0" />
  <text
     xml:space="preserve"
     style="font-style:normal;font-variant:normal;font-weight:normal;font-stretch:normal;font-size:11px;line-height:1.25;font-family:'Arial Black';-inkscape-font-specification:'Arial Black, ';letter-spacing:0px;word-spacing:0px;fill:#000000;fill-opacity:1;stroke:none"
     x="12.292473"
     y="15.194446"
     id="text819"><tspan
       sodipodi:role="line"
       id="tspan817"
       x="12.292473"
       y="25.056814" /></text>
  <text
     xml:space="preserve"
     style="font-style:normal;font-variant:normal;font-weight:normal;font-stretch:normal;font-size:4px;line-height:1.25;font-family:'Arial Black';-inkscape-font-specification:'Arial Black, ';letter-spacing:0px;word-spacing:0px;fill:#000000;fill-opacity:1;stroke:none"
     x="11.478914"
     y="16.008003"
     id="text823"><tspan
       sodipodi:role="line"
       id="tspan821"
       x="11.478914"
       y="19.59432" /></text>
  <text
     xml:space="preserve"
     style="font-style:normal;font-variant:normal;font-weight:normal;font-stretch:normal;font-size:11px;line-height:1.25;font-family:'Arial Black';-inkscape-font-specification:'Arial Black, ';letter-spacing:0px;word-spacing:0px;fill:#000000;fill-opacity:1;stroke:none"
     x="-51.893703"
     y="9.4995298"
     id="text819-3"><tspan
       sodipodi:role="line"
       id="tspan817-5"
       x="-51.893703"
       y="19.361898" /></text>
  <text
     xml:space="preserve"
     style="font-style:normal;font-variant:normal;font-weight:normal;font-stretch:normal;font-size:4px;line-height:1.25;font-family:'Arial Black';-inkscape-font-specification:'Arial Black, ';letter-spacing:0px;word-spacing:0px;fill:#000000;fill-opacity:1;stroke:none"
     x="-52.707264"
     y="10.313088"
     id="text823-6"><tspan
       sodipodi:role="line"
       id="tspan821-2"
       x="-52.707264"
       y="13.899405" /></text>
  <g
     id="g30"
     transform="matrix(1.0177876,0,0,1.0177876,-2.0829096,-9.1347554)"
     style="stroke-width:0.98252326">
    <g
       id="g37"
       transform="matrix(1.1362198,0,0,1.1362198,-0.72091037,-3.7365304)"
       style="stroke-width:0.86472988">
      <path
         style="fill:#0066ff;stroke-width:0.8647266"
         inkscape:connector-curvature="0"
         d="m 23.426239,35.564971 c -1.081422,-2.917775 -1.629592,-8.179685 -1.629592,-11.269754 0,-3.090065 0.548174,-8.553818 1.629698,-11.471592 0.446321,-1.201259 2.429514,-1.201259 2.875852,0 1.081419,2.917774 1.629594,8.381527 1.629594,11.471592 0,3.090069 -0.548175,8.351979 -1.629704,11.269754 -0.494375,1.330814 -2.381356,1.330611 -2.875848,0 z"
         id="path73" />
      <path
         style="fill:#003380;stroke-width:0.8647266"
         inkscape:connector-curvature="0"
         d="m 12.647816,29.211108 c 1.124158,1.946274 3.432101,5.32387 5.78779,7.873232 -2.538618,-0.908103 -5.275608,-2.20037 -7.059915,-3.23046 -2.6760464,-1.545035 -7.045292,-4.700547 -9.0314429,-7.09601 -0.817099,-0.98725 0.1745432,-2.704581 1.437975,-2.490561 2.134008,0.363405 5.1523928,1.542374 7.6994019,2.746085 0.422206,0.848804 0.825486,1.607416 1.166191,2.197714 z"
         id="path75" />
      <path
         style="fill:#003380;stroke-width:0.8647266"
         inkscape:connector-curvature="0"
         d="m 38.352639,33.85388 c -1.7843,1.03009 -4.521187,2.322357 -7.060018,3.23046 2.3561,-2.549869 4.663734,-5.926549 5.786569,-7.870161 0.34128,-0.59143 0.745008,-1.35127 1.167522,-2.200683 2.547105,-1.203716 5.667647,-2.382679 7.801648,-2.74609 1.263436,-0.214117 2.25498,1.503214 1.437874,2.490464 -1.986042,2.395463 -6.457543,5.550975 -9.133595,7.09601 z"
         id="path77" />
      <path
         style="fill:#0044aa;stroke-width:0.8647266"
         inkscape:connector-curvature="0"
         d="m 15.305557,27.678449 c -1.545029,-2.676047 -3.750921,-7.593474 -4.27333,-10.661041 -0.214002,-1.263435 1.503315,-2.254977 2.490558,-1.437982 1.66651,1.381737 3.69101,3.91198 5.295044,6.228195 -0.05897,0.946452 -0.08872,1.805474 -0.08872,2.487499 0,2.244543 0.30909,6.323084 1.075797,9.711424 -1.744764,-2.055892 -3.469153,-4.543585 -4.499343,-6.328095 z"
         id="path79" />
      <path
         style="fill:#0055d4;stroke-width:0.8647266"
         inkscape:connector-curvature="0"
         d="m 29.92377,34.006235 c 0.766275,-3.388851 1.075594,-7.466675 1.075594,-9.711018 0,-0.682122 -0.03014,-1.541043 -0.08872,-2.487493 1.604039,-2.316221 3.62853,-4.846457 5.295037,-6.228189 0.987247,-0.817104 2.704578,0.174591 2.490562,1.43797 -0.522412,3.067578 -2.728298,7.984994 -4.273334,10.661041 -1.030192,1.784203 -2.754375,4.271907 -4.499099,6.327689 z"
         id="path81" />
    </g>
  </g>
</svg>
