<?xml version="1.0" encoding="iso-8859-1"?>
<!-- Generator: Adobe Illustrator 19.0.0, SVG Export Plug-In . SVG Version: 6.00 Build 0)  -->
<svg version="1.1" id="Capa_1" xmlns="http://www.w3.org/2000/svg" xmlns:xlink="http://www.w3.org/1999/xlink" x="0px" y="0px"
	 viewBox="0 0 512 512" style="enable-background:new 0 0 512 512;" xml:space="preserve">
<path style="fill:#4E4F75;" d="M407.216,254.403v209.891c0,26.351-68.412,47.707-152.802,47.707c-24.235,0-47.16-1.765-67.514-4.903
	c-50.535-7.772-85.288-24.018-85.288-42.804V256.075l85.288-0.464L407.216,254.403z"/>
<path style="fill:#32314C;" d="M186.9,255.61v251.487c-50.535-7.772-85.288-24.018-85.288-42.804V232.874L186.9,255.61z"/>
<g>
	<path style="fill:#F9D366;" d="M392.278,63.003l4.892-0.992c6.457-1.309,6.457-10.537,0-11.846l-4.892-0.992
		c-12.325-2.499-21.957-12.131-24.456-24.456l-0.992-4.892c-1.309-6.457-10.536-6.457-11.846,0l-0.992,4.892
		c-2.499,12.325-12.131,21.957-24.456,24.456l-4.892,0.992c-6.457,1.309-6.457,10.537,0,11.846l4.892,0.992
		c12.325,2.499,21.957,12.131,24.456,24.456l0.992,4.892c1.309,6.457,10.536,6.457,11.846,0l0.992-4.892
		C370.321,75.134,379.953,65.502,392.278,63.003z"/>
	<path style="fill:#F9D366;" d="M75.436,35.609c-4.275,0-7.741-3.466-7.741-7.741V7.741C67.695,3.466,71.161,0,75.436,0
		s7.741,3.466,7.741,7.741v20.126C83.177,32.143,79.711,35.609,75.436,35.609z"/>
	<path style="fill:#F9D366;" d="M75.436,89.794c-4.275,0-7.741-3.466-7.741-7.741V61.927c0-4.275,3.466-7.741,7.741-7.741
		s7.741,3.466,7.741,7.741v20.126C83.177,86.328,79.711,89.794,75.436,89.794z"/>
	<path style="fill:#F9D366;" d="M112.592,52.638H92.465c-4.275,0-7.741-3.466-7.741-7.741s3.466-7.741,7.741-7.741h20.126
		c4.275,0,7.741,3.466,7.741,7.741S116.867,52.638,112.592,52.638z"/>
	<path style="fill:#F9D366;" d="M58.405,52.638H38.279c-4.275,0-7.741-3.466-7.741-7.741s3.466-7.741,7.741-7.741h20.126
		c4.275,0,7.741,3.466,7.741,7.741S62.681,52.638,58.405,52.638z"/>
	<path style="fill:#F9D366;" d="M465.574,403.054c-4.276,0-7.741-3.466-7.741-7.741v-20.126c0-4.275,3.465-7.741,7.741-7.741
		c4.276,0,7.741,3.466,7.741,7.741v20.126C473.315,399.588,469.849,403.054,465.574,403.054z"/>
	<path style="fill:#F9D366;" d="M465.574,457.24c-4.276,0-7.741-3.466-7.741-7.741v-20.126c0-4.275,3.465-7.741,7.741-7.741
		c4.276,0,7.741,3.466,7.741,7.741v20.126C473.315,453.773,469.849,457.24,465.574,457.24z"/>
	<path style="fill:#F9D366;" d="M502.73,420.084h-20.126c-4.276,0-7.741-3.466-7.741-7.741c0-4.275,3.465-7.741,7.741-7.741h20.126
		c4.276,0,7.741,3.466,7.741,7.741C510.471,416.618,507.006,420.084,502.73,420.084z"/>
	<path style="fill:#F9D366;" d="M448.545,420.084h-20.126c-4.276,0-7.741-3.466-7.741-7.741c0-4.275,3.465-7.741,7.741-7.741h20.126
		c4.276,0,7.741,3.466,7.741,7.741C456.286,416.618,452.82,420.084,448.545,420.084z"/>
</g>
<path style="fill:#32314C;" d="M407.216,254.403V286.4c-42.443,10.064-95.382,16.04-152.802,16.04s-110.359-5.976-152.802-16.04
	v-30.325l85.288-0.464L407.216,254.403z"/>
<ellipse style="fill:#4E4F75;" cx="254.409" cy="190.971" rx="252.88" ry="78.961"/>
<path style="fill:#32314C;" d="M254.411,212.125c-50.277,0-99.59-5.091-138.856-14.335c-0.095-0.023-0.189-0.044-0.284-0.067
	c-7.109-1.679-7.109-11.828,0-13.507c0.095-0.023,0.189-0.044,0.284-0.067c39.266-9.244,88.579-14.335,138.856-14.335
	s99.589,5.091,138.856,14.335c0.095,0.023,0.189,0.044,0.284,0.067c7.108,1.679,7.108,11.828,0,13.507
	c-0.095,0.023-0.189,0.044-0.284,0.067C354,207.035,304.688,212.125,254.411,212.125z"/>
<path style="fill:#F9D366;" d="M263.112,107.228l22.359-4.533c10.556-2.14,10.556-17.226,0-19.366l-22.359-4.533
	c-22.034-4.467-39.254-21.688-43.721-43.721l-4.533-22.359c-2.14-10.556-17.226-10.556-19.367,0l-4.533,22.359
	c-4.467,22.034-21.688,39.254-43.721,43.721l-22.359,4.533c-10.556,2.14-10.556,17.226,0,19.366l22.359,4.533
	c22.034,4.467,39.254,21.688,43.721,43.721l4.533,22.359c2.14,10.556,17.226,10.556,19.367,0l4.533-22.359
	C223.859,128.916,241.079,111.696,263.112,107.228z"/>
<g>
</g>
<g>
</g>
<g>
</g>
<g>
</g>
<g>
</g>
<g>
</g>
<g>
</g>
<g>
</g>
<g>
</g>
<g>
</g>
<g>
</g>
<g>
</g>
<g>
</g>
<g>
</g>
<g>
</g>
</svg>
