<?xml version="1.0" encoding="UTF-8" standalone="no"?>
<svg
   xmlns:dc="http://purl.org/dc/elements/1.1/"
   xmlns:cc="http://creativecommons.org/ns#"
   xmlns:rdf="http://www.w3.org/1999/02/22-rdf-syntax-ns#"
   xmlns:svg="http://www.w3.org/2000/svg"
   xmlns="http://www.w3.org/2000/svg"
   xmlns:sodipodi="http://sodipodi.sourceforge.net/DTD/sodipodi-0.dtd"
   xmlns:inkscape="http://www.inkscape.org/namespaces/inkscape"
   id="f365d496-25fe-4099-ab6b-7bfcace02cb0"
   data-name="Layer 1"
   width="319.24838"
   height="397.69391"
   viewBox="0.7 0 319.3269 397.69391"
   version="1.1"
   sodipodi:docname="man.svg"
   inkscape:version="0.92.5 (2060ec1f9f, 2020-04-08)">
  <metadata
     id="metadata65">
    <rdf:RDF>
      <cc:Work
         rdf:about="">
        <dc:format>image/svg+xml</dc:format>
        <dc:type
           rdf:resource="http://purl.org/dc/dcmitype/StillImage" />
        <dc:title />
      </cc:Work>
    </rdf:RDF>
  </metadata>
  <defs
     id="defs63" />
  <sodipodi:namedview
     pagecolor="#ffffff"
     bordercolor="#666666"
     borderopacity="1"
     objecttolerance="10"
     gridtolerance="10"
     guidetolerance="10"
     inkscape:pageopacity="0"
     inkscape:pageshadow="2"
     inkscape:window-width="1324"
     inkscape:window-height="740"
     id="namedview61"
     showgrid="false"
     inkscape:zoom="0.9208824"
     inkscape:cx="213.10585"
     inkscape:cy="171.29564"
     inkscape:window-x="36"
     inkscape:window-y="0"
     inkscape:window-maximized="1"
     inkscape:current-layer="f365d496-25fe-4099-ab6b-7bfcace02cb0"
     viewbox-x="0.7"
     viewbox-width="824.67"
     fit-margin-top="0"
     fit-margin-left="0"
     fit-margin-right="0"
     fit-margin-bottom="0" />
  <path
     d="m 231.59886,230.54863 h 1.8e-4 a 45.82532,45.82532 0 0 1 45.8253,45.82531 v 87.18 H 98.593688 v -1.3e-4 A 133.00517,133.00517 0 0 1 231.59884,230.54863 Z"
     id="path20"
     inkscape:connector-curvature="0"
     style="fill:#d5d5ff" />
  <polygon
     points="188.622,405.154 204.322,459.424 190.252,463.494 167.856,411.162 "
     id="polygon24"
     style="fill:#e9c6af"
     transform="translate(-64.521174,-87.416769)" />
  <path
     d="m 147.33483,384.60744 -45.36725,13.12459 -0.166,-0.57381 a 18.38326,18.38326 0 0 1 12.549,-22.76684 l 0.001,-3.3e-4 27.7088,-8.016 z"
     id="path26"
     inkscape:connector-curvature="0"
     style="fill:#1c1f24" />
  <polygon
     points="328.188,406.018 314.484,460.825 328.693,464.378 349.159,411.261 "
     id="polygon28"
     style="fill:#e9c6af"
     transform="translate(-64.521174,-87.416769)" />
  <path
     d="m 247.49825,367.86274 27.98349,6.997 10e-4,2.9e-4 a 18.38327,18.38327 0 0 1 13.37343,22.29254 l -0.14493,0.5795 -45.817,-11.4562 z"
     id="path30"
     inkscape:connector-curvature="0"
     style="fill:#1c1f24" />
  <path
     d="m 173.4488,182.35363 -14.51548,15.48318 c 0,0 -76.448174,33.86944 -76.448174,51.288 0,17.41856 18.386264,92.899 26.127854,98.70521 4.663,3.51646 2.55514,7.30369 4.86854,12.66627 l 27.0655,-9.76318 c 0,0 -1.93539,-5.80622 0,-8.7093 1.93539,-2.90308 0,-4.83851 0,-4.83851 0,0 -2.90308,0.96771 -1.93539,-1.93538 0.96769,-2.90309 0.96768,-3.87079 0,-4.8385 -0.96768,-0.96771 -3.8708,-9.677 -3.8708,-9.677 0,0 0.96769,-34.83713 -12.58008,-47.41724 0,0 62.90037,-18.38625 70.642,-30.96635 7.74163,-12.5801 9.677,-58.06191 9.677,-58.06191 z"
     id="path32"
     style="fill:#162d50;fill-opacity:1"
     inkscape:connector-curvature="0" />
  <path
     d="m 217.75747,174.81299 14.51548,25.16016 c 0,0 76.44818,33.86944 76.44818,51.288 0,17.41856 -18.38623,92.899 -26.12787,98.70521 -4.663,3.51646 -3.32655,8.80537 -5.64,14.168 L 250.65919,352.8695 c 0,0 1.93538,-5.80622 0,-8.70931 -1.93538,-2.90309 0,-4.8385 0,-4.8385 0,0 2.90309,0.96771 1.93538,-1.93538 -0.96771,-2.90309 -0.96771,-3.8708 0,-4.83851 0.96771,-0.96771 3.8708,-9.677 3.8708,-9.677 0,0 -0.96772,-34.83713 12.5801,-47.41723 0,0 -68.7066,-24.19247 -76.44819,-36.77253 -9.91467,-16.11132 -2.66543,-82.27134 -4.83851,-59.99731 z"
     id="path34"
     style="fill:#162d50"
     inkscape:connector-curvature="0" />
  <circle
     cx="214.46741"
     cy="41.780548"
     r="25.16016"
     id="circle36"
     style="fill:#e9c6af" />
  <path
     d="m 237.31688,73.003631 c 0,0 0.23234,0.4485 -43.95131,-3.021 0,0 -24.75528,9.795 -23.78757,16.56883 0.96771,6.77383 -1.93538,99.672929 -1.93538,99.672929 0,0 40.64335,11.61239 52.25574,0 C 231.51075,174.612 237.31688,73.003631 237.31688,73.003631 Z"
     id="path38"
     style="fill:#162d50;fill-opacity:1"
     inkscape:connector-curvature="0" />
  <path
     d="m 228.73968,71.983891 11.74605,0.73413 c 0,0 34.57137,12.86574 33.60366,22.54273 -0.96771,9.676989 -19.354,55.158799 -19.354,55.158799 0,0 -9.677,34.83715 -7.74159,44.51412 1.93541,9.67697 4.8385,12.58008 2.90308,15.48317 -1.93542,2.90309 0,8.70928 0,10.64468 0,1.9354 -11.61234,9.677 -11.61234,9.677 0,0 -18.38623,-16.45087 -25.16016,-19.354 -6.77393,-2.90313 -11.61239,-25.16016 -6.77389,-44.51412 4.8385,-19.35396 19.354,-81.286669 19.354,-81.286669 a 17.63968,17.63968 0 0 1 3.03519,-13.59984 z"
     id="path40"
     style="fill:#939dac;fill-opacity:1"
     inkscape:connector-curvature="0" />
  <path
     d="m 198.01745,69.233181 a 32.36284,32.36284 0 0 0 -14.79376,0.54833 c -5.02761,1.37116 -28.16123,9.99609 -28.16123,13.86689 0,3.8708 9.677,52.255719 9.677,52.255719 l 1.93538,28.06324 -17.41857,12.58006 c 0,0 3.8708,12.58008 -0.96768,17.41856 -4.83848,4.83848 -10.64468,17.41857 -4.83849,19.354 5.80619,1.93543 41.61109,-11.61235 42.57875,-26.12788 0.96766,-14.51553 -2.90308,-25.16016 3.8708,-35.80484 6.77388,-10.64468 7.74159,-52.255709 7.74159,-52.255709 z"
     id="path42"
     style="fill:#939dac;fill-opacity:1"
     inkscape:connector-curvature="0" />
  <path
     d="M 237.96547,22.244927 A 29.05849,29.05849 0 0 0 221.43589,9.6084279 l -5.05372,4.0430001 1.96482,-4.7156901 a 26.75132,26.75132 0 0 0 -4.995,-0.28868 l -4.54708,5.8463001 1.882,-5.6460501 A 28.78069,28.78069 0 0 0 190.8326,20.657237 c -5.78735,8.34484 -6.76389,19.94976 -1.07184,28.35983 1.56257,-4.80186 3.459,-9.30763 5.02159,-14.10954 a 14.21258,14.21258 0 0 0 3.70227,0.018 l 1.9011,-4.43579 0.531,4.24818 c 5.89229,-0.51341 14.632,-1.64041 20.2181,-2.67307 l -0.54316,-3.25893 3.24981,2.70819 c 1.71147,-0.394 2.72757,-0.75127 2.6436,-1.02434 4.15452,6.69757 9.23867,10.97543 13.39305,17.67294 1.57706,-9.44712 3.39342,-17.29985 -1.91265,-25.91778 z"
     id="path44"
     inkscape:connector-curvature="0"
     style="fill:#2f2e41" />
  <ellipse
     cx="235.51981"
     cy="41.662064"
     rx="2.03216"
     ry="3.38694"
     id="ellipse46"
     style="fill:#a0616a" />
  <path
     d="m 232.7353,208.82489 h -43.73046 a 4.15,4.15 0 0 1 -4.15,-4.15 v 0 l -1.92708,-57.21986 a 4.15,4.15 0 0 1 4.15,-4.15 h 47.58463 a 4.15,4.15 0 0 1 4.15,4.15 v 0 l -1.92709,57.21986 a 4.15,4.15 0 0 1 -4.15,4.15 z"
     id="path48"
     inkscape:connector-curvature="0"
     style="fill:#e4e4e4" />
  <circle
     cx="210.87006"
     cy="160.64853"
     r="3.85411"
     id="circle50"
     style="fill:#536dfe" />
  <path
     d="m 217.24979,185.49541 a 10.44855,10.44855 0 0 1 15.99747,-0.87781 l 22.357,-8.382 8.40738,12.344 -31.73869,11.39355 a 10.50513,10.50513 0 0 1 -15.02317,-14.47771 z"
     id="path52"
     style="fill:#e9c6af"
     inkscape:connector-curvature="0" />
  <path
     d="m 203.86136,182.96954 a 10.44849,10.44849 0 0 0 -15.55883,-3.82262 l -20.42008,-12.3739 -10.54617,10.57523 29.08254,17.06938 a 10.50513,10.50513 0 0 0 17.44254,-11.448 z"
     id="path54"
     style="fill:#e9c6af"
     inkscape:connector-curvature="0" />
  <path
     d="m 258.60624,89.454551 c 0,0 14.51548,-2.90308 18.38623,9.677 3.87075,12.580079 23.22474,59.029589 17.41857,65.803479 -5.80617,6.77389 -27.09558,25.16016 -33.86947,29.031 -6.77389,3.87084 -9.677,3.8708 -9.677,3.8708 l -8.70926,3.8708 -2.90308,-22.25707 9.93224,-5.88352 15.22798,-12.50281 -8.70931,-26.12785 z"
     id="path56"
     style="fill:#939dac;fill-opacity:1"
     inkscape:connector-curvature="0" />
  <path
     d="m 163.77178,82.680631 c 0,0 -14.51548,-2.903 -18.38625,9.677 -3.87077,12.579999 -23.22476,59.029599 -17.41859,65.803479 5.80617,6.77388 27.09556,25.16016 33.86942,29.031 6.77386,3.87084 9.677,3.8708 9.677,3.8708 l 8.70931,3.87079 2.90308,-22.25707 -9.93224,-5.88351 -15.22792,-12.50276 14.03165,-34.3533 z"
     id="path58"
     style="fill:#939dac;fill-opacity:1"
     inkscape:connector-curvature="0" />
</svg>
