<?xml version="1.0" encoding="UTF-8" standalone="no"?>
<!-- Generator: Adobe Illustrator 19.0.0, SVG Export Plug-In . SVG Version: 6.00 Build 0)  -->

<svg
   xmlns:dc="http://purl.org/dc/elements/1.1/"
   xmlns:cc="http://creativecommons.org/ns#"
   xmlns:rdf="http://www.w3.org/1999/02/22-rdf-syntax-ns#"
   xmlns:svg="http://www.w3.org/2000/svg"
   xmlns="http://www.w3.org/2000/svg"
   xmlns:sodipodi="http://sodipodi.sourceforge.net/DTD/sodipodi-0.dtd"
   xmlns:inkscape="http://www.inkscape.org/namespaces/inkscape"
   version="1.1"
   id="Capa_1"
   x="0px"
   y="0px"
   viewBox="0 0 512 512"
   style="enable-background:new 0 0 512 512;"
   xml:space="preserve"
   sodipodi:docname="night.svg"
   inkscape:version="0.92.5 (2060ec1f9f, 2020-04-08)"><metadata
   id="metadata43"><rdf:RDF><cc:Work
       rdf:about=""><dc:format>image/svg+xml</dc:format><dc:type
         rdf:resource="http://purl.org/dc/dcmitype/StillImage" /></cc:Work></rdf:RDF></metadata><defs
   id="defs41" /><sodipodi:namedview
   pagecolor="#ffffff"
   bordercolor="#666666"
   borderopacity="1"
   objecttolerance="10"
   gridtolerance="10"
   guidetolerance="10"
   inkscape:pageopacity="0"
   inkscape:pageshadow="2"
   inkscape:window-width="1324"
   inkscape:window-height="740"
   id="namedview39"
   showgrid="false"
   inkscape:zoom="0.4609375"
   inkscape:cx="256"
   inkscape:cy="256"
   inkscape:window-x="36"
   inkscape:window-y="0"
   inkscape:window-maximized="1"
   inkscape:current-layer="Capa_1" />
<g
   id="g6"
   style="fill:#1e3a8a;fill-opacity:1">
	<g
   id="g4"
   style="fill:#1e3a8a;fill-opacity:1">
		<path
   d="M507.681,209.011c-1.297-6.991-7.323-12.112-14.433-12.262c-7.145-0.155-13.346,4.712-14.936,11.642    c-15.26,66.498-73.643,112.941-141.978,112.941c-80.321,0-145.667-65.346-145.667-145.666    c0-68.335,46.443-126.718,112.942-141.976c6.93-1.59,11.791-7.827,11.643-14.934c-0.149-7.108-5.269-13.136-12.259-14.434    C287.545,1.454,271.735,0,256,0C187.62,0,123.333,26.629,74.98,74.981C26.629,123.333,0,187.62,0,256    s26.629,132.667,74.98,181.019C123.333,485.371,187.62,512,256,512s132.667-26.629,181.02-74.981    C485.371,388.667,512,324.38,512,256C512,240.278,510.547,224.469,507.681,209.011z M256,482C131.383,482,30,380.617,30,256    c0-118.227,91.264-215.544,207.036-225.212c-14.041,9.63-26.724,21.303-37.513,34.681    c-25.058,31.071-38.857,70.207-38.857,110.197c0,96.863,78.804,175.666,175.667,175.666c39.99,0,79.126-13.8,110.197-38.857    c13.378-10.789,25.051-23.471,34.682-37.511C471.544,390.736,374.228,482,256,482z"
   id="path2"
   style="fill:#1e3a8a;fill-opacity:1" />
	</g>
</g>
<g
   id="g8">
</g>
<g
   id="g10">
</g>
<g
   id="g12">
</g>
<g
   id="g14">
</g>
<g
   id="g16">
</g>
<g
   id="g18">
</g>
<g
   id="g20">
</g>
<g
   id="g22">
</g>
<g
   id="g24">
</g>
<g
   id="g26">
</g>
<g
   id="g28">
</g>
<g
   id="g30">
</g>
<g
   id="g32">
</g>
<g
   id="g34">
</g>
<g
   id="g36">
</g>
</svg>