<?xml version="1.0" encoding="iso-8859-1"?>
<!-- Generator: Adobe Illustrator 19.0.0, SVG Export Plug-In . SVG Version: 6.00 Build 0)  -->
<svg version="1.1" id="Capa_1" xmlns="http://www.w3.org/2000/svg" xmlns:xlink="http://www.w3.org/1999/xlink" x="0px" y="0px"
	 viewBox="0 0 511.999 511.999" style="enable-background:new 0 0 511.999 511.999;" xml:space="preserve">
<path style="fill:#546F7A;" d="M443.269,344.683c-6.617-22.935-20.781-42.589-34.481-61.596
	c-12.401-17.206-24.114-33.457-30.68-51.887c-0.888-2.49-3.024-4.326-5.619-4.828c-2.601-0.501-5.264,0.404-7.015,2.383
	l-55.947,63.192l-44.553-44.553l122.543-108.494c1.244-1.101,2.086-2.586,2.391-4.219c4.727-25.25,1.516-48.48-9.541-69.047
	c-10.135-18.851-26.891-34.826-48.456-46.196C297.707,1.4,252.389-4.44,207.585,3.415c-49.777,8.726-95.532,32.782-132.316,69.567
	C27.753,120.498,1.586,183.673,1.586,250.869s26.168,130.372,73.684,177.887c29.637,29.637,68.077,53.03,111.164,67.65
	c30.468,10.339,61.196,15.593,90.529,15.592c12.186,0,24.139-0.908,35.722-2.734c55.22-8.707,96.622-37.197,119.729-82.391
	C447.284,397.79,450.834,370.905,443.269,344.683z"/>
<path style="fill:#FFD039;" d="M501.704,55.217c-0.487-0.487-0.992-0.947-1.504-1.394c-0.112-0.097-0.222-0.194-0.335-0.289
	c-0.513-0.434-1.035-0.852-1.57-1.245c-0.054-0.039-0.109-0.076-0.162-0.115c-0.519-0.377-1.048-0.732-1.586-1.072
	c-0.078-0.049-0.154-0.1-0.232-0.148c-0.585-0.362-1.179-0.7-1.781-1.018c-0.049-0.026-0.099-0.05-0.148-0.076
	c-1.263-0.656-2.564-1.215-3.892-1.678c-0.023-0.008-0.046-0.016-0.068-0.023c-1.36-0.47-2.748-0.841-4.152-1.109c0,0,0,0-0.001,0
	c-8.793-1.682-18.224,0.592-25.379,6.928L249.121,241.467c-0.116,0.103-0.22,0.214-0.329,0.322l0.001,0.001
	c-0.259,0.26-0.507,0.532-0.728,0.832l-34.433,46.605c-2.198,2.974-1.889,7.109,0.726,9.724l24.501,24.502l0,0l19.11,19.11
	c1.448,1.448,3.362,2.189,5.286,2.189c1.552,0,3.111-0.481,4.439-1.463l46.605-34.434c0.301-0.222,0.575-0.472,0.836-0.733l0,0
	c0.107-0.107,0.217-0.209,0.318-0.324L502.944,96.029C513.363,84.261,512.819,66.333,501.704,55.217z"/>
<g>
	<path style="fill:#475D63;" d="M380.368,65.632c-10.135-18.851-26.891-34.826-48.456-46.196
		C303.32,4.36,266.964-2.187,229.634,0.656c25.085,1.953,48.704,8.305,68.571,18.781c21.565,11.371,38.321,27.345,48.456,46.196
		c11.058,20.567,14.267,43.797,9.541,69.047l-11.153,41.819l42.468-37.599c1.244-1.101,2.086-2.586,2.391-4.219
		C394.636,109.43,391.426,86.199,380.368,65.632z"/>
	<path style="fill:#475D63;" d="M443.269,344.683c-6.617-22.935-20.781-42.589-34.481-61.596
		c-12.401-17.206-24.114-33.457-30.68-51.887c-0.888-2.49-3.024-4.326-5.619-4.828c-2.601-0.501-5.264,0.404-7.015,2.383
		l-14.82,16.738c6.598,12.842,15.322,24.962,24.427,37.593c13.699,19.007,27.865,38.661,34.481,61.596
		c7.565,26.222,4.014,53.107-10.857,82.191c-23.107,45.194-64.509,73.685-119.729,82.391c-6.26,0.987-12.63,1.696-19.085,2.148
		c5.733,0.388,11.428,0.586,17.07,0.586c12.186,0,24.139-0.908,35.722-2.734c55.22-8.707,96.622-37.197,119.729-82.391
		C447.284,397.79,450.834,370.905,443.269,344.683z"/>
</g>
<path style="fill:#00B76C;" d="M255.221,66.708c-17.138-17.138-45.023-17.138-62.161,0c-17.138,17.138-17.138,45.023,0,62.161
	c8.569,8.569,19.825,12.854,31.08,12.854c11.255,0,22.512-4.284,31.08-12.854C272.359,111.73,272.359,83.845,255.221,66.708z"/>
<path style="fill:#39A4FA;" d="M145.075,144.268c-17.138-17.138-45.024-17.138-62.161,0s-17.138,45.023,0,62.161
	c8.57,8.57,19.823,12.854,31.08,12.854c11.254,0,22.513-4.285,31.081-12.854C162.212,189.291,162.212,161.406,145.075,144.268z"/>
<path style="fill:#FF434D;" d="M130.16,273.364c-17.138-17.138-45.023-17.138-62.161,0c-17.138,17.138-17.138,45.023,0,62.161
	c8.569,8.569,19.825,12.854,31.08,12.854c11.256,0,22.512-4.284,31.081-12.854C147.297,318.387,147.297,290.502,130.16,273.364z"/>
<path style="fill:#FFD039;" d="M353.388,372.337c-17.138-17.139-45.024-17.137-62.162,0c-17.138,17.138-17.138,45.023,0,62.161
	c8.569,8.569,19.826,12.854,31.081,12.854s22.512-4.284,31.08-12.854C370.526,417.359,370.526,389.474,353.388,372.337z"/>
<path style="fill:#FFAE47;" d="M248.794,241.79c-0.259,0.26-0.507,0.532-0.728,0.832l-34.434,46.605
	c-2.198,2.974-1.889,7.109,0.726,9.724l43.61,43.612c1.448,1.448,3.362,2.189,5.286,2.189c1.552,0,3.111-0.481,4.439-1.463
	l46.605-34.434c0.301-0.222,0.575-0.472,0.836-0.733L248.794,241.79z"/>
<path style="fill:#E29440;" d="M315.135,308.122l-23.596-23.593l-52.68,38.922l19.11,19.11c1.448,1.448,3.362,2.189,5.286,2.189
	c1.552,0,3.111-0.481,4.439-1.463l46.605-34.434C314.6,308.633,314.874,308.383,315.135,308.122z"/>
<rect x="190.618" y="310.749" transform="matrix(-0.7071 -0.7071 0.7071 -0.7071 161.6188 720.6526)" style="fill:#546F7A;" width="78.888" height="32.211"/>
<path style="fill:#FF6137;" d="M241.543,352.344c-0.286-1.457-0.999-2.796-2.049-3.845l-31.071-31.072
	c-1.05-1.05-2.389-1.763-3.845-2.049c-15.382-3.017-31.174,1.79-42.243,12.859c-16.475,16.475-31.425,82.996-33.076,90.527
	c-0.545,2.488,0.214,5.082,2.016,6.884c1.417,1.417,3.324,2.189,5.283,2.189c0.532,0,1.068-0.057,1.599-0.173
	c7.531-1.651,74.051-16.601,90.527-33.076C239.753,383.517,244.56,367.726,241.543,352.344z"/>
<path style="fill:#E04F32;" d="M241.543,352.344c-0.286-1.457-0.999-2.796-2.049-3.845l-22.311-22.311
	c0.247,0.536,0.447,1.093,0.563,1.678c3.018,15.382-1.789,31.174-12.859,42.243c-11.525,11.525-47.537,22.303-70.717,28.304
	c-2.656,10.22-4.407,18.047-4.912,20.351c-0.545,2.488,0.214,5.082,2.016,6.884c1.417,1.417,3.324,2.189,5.283,2.189
	c0.532,0,1.068-0.057,1.599-0.173c7.531-1.651,74.051-16.601,90.527-33.076C239.753,383.517,244.56,367.726,241.543,352.344z"/>
<path style="fill:#E0E0E0;" d="M274.623,338.08l-55.783-55.783c-2.918-2.918-7.65-2.918-10.567,0L185.5,305.07
	c-1.402,1.401-2.189,3.302-2.189,5.283c0,1.982,0.787,3.883,2.189,5.284l55.783,55.783c1.401,1.402,3.302,2.189,5.283,2.189
	c1.982,0,3.883-0.787,5.283-2.189l22.773-22.773C277.54,345.73,277.54,340.999,274.623,338.08z"/>
<path style="fill:#C6C5CA;" d="M274.623,348.648c2.918-2.918,2.918-7.65,0-10.567l-18.317-18.317l-33.341,33.341l18.317,18.317
	c1.401,1.402,3.302,2.189,5.283,2.189c1.982,0,3.883-0.787,5.283-2.189L274.623,348.648z"/>
<path style="fill:#FFD039;" d="M501.704,55.217c-11.115-11.116-29.043-11.661-40.812-1.239l-211.77,187.49
	c-0.116,0.103-0.22,0.214-0.329,0.323l66.342,66.332c0.107-0.107,0.217-0.209,0.318-0.324L502.944,96.029
	C513.363,84.261,512.819,66.334,501.704,55.217z"/>
<path style="fill:#FFAE47;" d="M501.704,55.217c-4.358-4.358-9.763-7.083-15.433-8.168c1.685,8.796-0.589,18.229-6.925,25.386
	L291.853,284.204c-0.101,0.114-0.21,0.216-0.317,0.323l23.599,23.595c0.107-0.107,0.217-0.209,0.318-0.324L502.944,96.029
	C513.363,84.261,512.819,66.334,501.704,55.217z"/>
<g>
</g>
<g>
</g>
<g>
</g>
<g>
</g>
<g>
</g>
<g>
</g>
<g>
</g>
<g>
</g>
<g>
</g>
<g>
</g>
<g>
</g>
<g>
</g>
<g>
</g>
<g>
</g>
<g>
</g>
</svg>
