<?xml version="1.0" encoding="UTF-8" standalone="no"?>
<!-- Generator: Adobe Illustrator 19.0.0, SVG Export Plug-In . SVG Version: 6.00 Build 0)  -->

<svg
   xmlns:dc="http://purl.org/dc/elements/1.1/"
   xmlns:cc="http://creativecommons.org/ns#"
   xmlns:rdf="http://www.w3.org/1999/02/22-rdf-syntax-ns#"
   xmlns:svg="http://www.w3.org/2000/svg"
   xmlns="http://www.w3.org/2000/svg"
   xmlns:sodipodi="http://sodipodi.sourceforge.net/DTD/sodipodi-0.dtd"
   xmlns:inkscape="http://www.inkscape.org/namespaces/inkscape"
   version="1.1"
   id="Capa_1"
   x="0px"
   y="0px"
   viewBox="0 0 302.4 302.4"
   xml:space="preserve"
   sodipodi:docname="sun.svg"
   inkscape:version="0.92.5 (2060ec1f9f, 2020-04-08)"
   width="302.39999"
   height="302.39999"><metadata
   id="metadata91"><rdf:RDF><cc:Work
       rdf:about=""><dc:format>image/svg+xml</dc:format><dc:type
         rdf:resource="http://purl.org/dc/dcmitype/StillImage" /><dc:title></dc:title></cc:Work></rdf:RDF></metadata><defs
   id="defs89" /><sodipodi:namedview
   pagecolor="#ffffff"
   bordercolor="#666666"
   borderopacity="1"
   objecttolerance="10"
   gridtolerance="10"
   guidetolerance="10"
   inkscape:pageopacity="0"
   inkscape:pageshadow="2"
   inkscape:window-width="1324"
   inkscape:window-height="740"
   id="namedview87"
   showgrid="false"
   inkscape:zoom="0.7804233"
   inkscape:cx="-17.509464"
   inkscape:cy="48.69154"
   inkscape:window-x="36"
   inkscape:window-y="0"
   inkscape:window-maximized="1"
   inkscape:current-layer="Capa_1"
   fit-margin-top="0"
   fit-margin-left="0"
   fit-margin-right="0"
   fit-margin-bottom="0" />
<g
   id="g6"
   style="fill:#1e3a8a;fill-opacity:1">
	<g
   id="g4"
   style="fill:#1e3a8a;fill-opacity:1">
		<path
   d="M 204.8,97.6 C 191.2,84 172,75.2 151.2,75.2 c -20.8,0 -40,8.4 -53.6,22.4 -13.6,13.6 -22.4,32.8 -22.4,53.6 0,20.8 8.8,40 22.4,53.6 13.6,13.6 32.8,22.4 53.6,22.4 20.8,0 40,-8.4 53.6,-22.4 13.6,-13.6 22.4,-32.8 22.4,-53.6 0,-20.8 -8.4,-40 -22.4,-53.6 z m -14.4,92.8 c -10,10 -24,16 -39.2,16 -15.2,0 -29.2,-6 -39.2,-16 -10,-10 -16,-24 -16,-39.2 0,-15.2 6,-29.2 16,-39.2 10,-10 24,-16 39.2,-16 15.2,0 29.2,6 39.2,16 10,10 16,24 16,39.2 0,15.2 -6,29.2 -16,39.2 z"
   id="path2"
   style="fill:#1e3a8a;fill-opacity:1"
   inkscape:connector-curvature="0" />
	</g>
</g>
<g
   id="g12"
   style="fill:#1e3a8a;fill-opacity:1">
	<g
   id="g10"
   style="fill:#1e3a8a;fill-opacity:1">
		<path
   d="m 292,140.8 h -30.8 c -5.6,0 -10.4,4.8 -10.4,10.4 0,5.6 4.8,10.4 10.4,10.4 H 292 c 5.6,0 10.4,-4.8 10.4,-10.4 0,-5.6 -4.8,-10.4 -10.4,-10.4 z"
   id="path8"
   style="fill:#1e3a8a;fill-opacity:1"
   inkscape:connector-curvature="0" />
	</g>
</g>
<g
   id="g18"
   style="fill:#1e3a8a;fill-opacity:1">
	<g
   id="g16"
   style="fill:#1e3a8a;fill-opacity:1">
		<path
   d="m 151.2,250.8 c -5.6,0 -10.4,4.8 -10.4,10.4 V 292 c 0,5.6 4.8,10.4 10.4,10.4 5.6,0 10.4,-4.8 10.4,-10.4 v -30.8 c 0,-5.6 -4.8,-10.4 -10.4,-10.4 z"
   id="path14"
   style="fill:#1e3a8a;fill-opacity:1"
   inkscape:connector-curvature="0" />
	</g>
</g>
<g
   id="g24"
   style="fill:#1e3a8a;fill-opacity:1">
	<g
   id="g22"
   style="fill:#1e3a8a;fill-opacity:1">
		<path
   d="m 258,243.6 -22,-22 c -3.6,-4 -10.4,-4 -14.4,0 -4,4 -4,10.4 0,14.4 l 22,22 c 4,4 10.4,4 14.4,0 4,-4 4,-10.4 0,-14.4 z"
   id="path20"
   style="fill:#1e3a8a;fill-opacity:1"
   inkscape:connector-curvature="0" />
	</g>
</g>
<g
   id="g30"
   style="fill:#1e3a8a;fill-opacity:1">
	<g
   id="g28"
   style="fill:#1e3a8a;fill-opacity:1">
		<path
   d="m 151.2,0 c -5.6,0 -10.4,4.8 -10.4,10.4 v 30.8 c 0,5.6 4.8,10.4 10.4,10.4 5.6,0 10.4,-4.8 10.4,-10.4 V 10.4 C 161.6,4.8 156.8,0 151.2,0 Z"
   id="path26"
   style="fill:#1e3a8a;fill-opacity:1"
   inkscape:connector-curvature="0" />
	</g>
</g>
<g
   id="g36"
   style="fill:#1e3a8a;fill-opacity:1">
	<g
   id="g34"
   style="fill:#1e3a8a;fill-opacity:1">
		<path
   d="m 258.4,44.4 c -4,-4 -10.4,-4 -14.4,0 l -22,22 c -4,4 -4,10.4 0,14.4 3.6,4 10.4,4 14.4,0 l 22,-22 c 4,-4 4,-10.4 0,-14.4 z"
   id="path32"
   style="fill:#1e3a8a;fill-opacity:1"
   inkscape:connector-curvature="0" />
	</g>
</g>
<g
   id="g42"
   style="fill:#1e3a8a;fill-opacity:1">
	<g
   id="g40"
   style="fill:#1e3a8a;fill-opacity:1">
		<path
   d="M 41.2,140.8 H 10.4 c -5.6,0 -10.4,4.8 -10.4,10.4 0,5.6 4.4,10.4 10.4,10.4 h 30.8 c 5.6,0 10.4,-4.8 10.4,-10.4 0,-5.6 -4.8,-10.4 -10.4,-10.4 z"
   id="path38"
   style="fill:#1e3a8a;fill-opacity:1"
   inkscape:connector-curvature="0" />
	</g>
</g>
<g
   id="g48"
   style="fill:#1e3a8a;fill-opacity:1">
	<g
   id="g46"
   style="fill:#1e3a8a;fill-opacity:1">
		<path
   d="m 80.4,221.6 c -3.6,-4 -10.4,-4 -14.4,0 l -22,22 c -4,4 -4,10.4 0,14.4 4,4 10.4,4 14.4,0 l 22,-22 c 4,-4 4,-10.4 0,-14.4 z"
   id="path44"
   style="fill:#1e3a8a;fill-opacity:1"
   inkscape:connector-curvature="0" />
	</g>
</g>
<g
   id="g54"
   style="fill:#1e3a8a;fill-opacity:1">
	<g
   id="g52"
   style="fill:#1e3a8a;fill-opacity:1">
		<path
   d="m 80.4,66.4 -22,-22 c -4,-4 -10.4,-4 -14.4,0 -4,4 -4,10.4 0,14.4 l 22,22 c 4,4 10.4,4 14.4,0 4,-4 4,-10.4 0,-14.4 z"
   id="path50"
   style="fill:#1e3a8a;fill-opacity:1"
   inkscape:connector-curvature="0" />
	</g>
</g>
<g
   id="g56">
</g>
<g
   id="g58">
</g>
<g
   id="g60">
</g>
<g
   id="g62">
</g>
<g
   id="g64">
</g>
<g
   id="g66">
</g>
<g
   id="g68">
</g>
<g
   id="g70">
</g>
<g
   id="g72">
</g>
<g
   id="g74">
</g>
<g
   id="g76">
</g>
<g
   id="g78">
</g>
<g
   id="g80">
</g>
<g
   id="g82">
</g>
<g
   id="g84">
</g>
</svg>