<?xml version="1.0" encoding="UTF-8" standalone="no"?>
<!-- Generator: Adobe Illustrator 19.0.0, SVG Export Plug-In . SVG Version: 6.00 Build 0)  -->

<svg
   xmlns:dc="http://purl.org/dc/elements/1.1/"
   xmlns:cc="http://creativecommons.org/ns#"
   xmlns:rdf="http://www.w3.org/1999/02/22-rdf-syntax-ns#"
   xmlns:svg="http://www.w3.org/2000/svg"
   xmlns="http://www.w3.org/2000/svg"
   xmlns:sodipodi="http://sodipodi.sourceforge.net/DTD/sodipodi-0.dtd"
   xmlns:inkscape="http://www.inkscape.org/namespaces/inkscape"
   version="1.1"
   id="Capa_1"
   x="0px"
   y="0px"
   viewBox="0 0 302.4 302.4"
   style="enable-background:new 0 0 302.4 302.4;"
   xml:space="preserve"
   sodipodi:docname="sun.svg"
   inkscape:version="0.92.5 (2060ec1f9f, 2020-04-08)"><metadata
   id="metadata91"><rdf:RDF><cc:Work
       rdf:about=""><dc:format>image/svg+xml</dc:format><dc:type
         rdf:resource="http://purl.org/dc/dcmitype/StillImage" /></cc:Work></rdf:RDF></metadata><defs
   id="defs89" /><sodipodi:namedview
   pagecolor="#ffffff"
   bordercolor="#666666"
   borderopacity="1"
   objecttolerance="10"
   gridtolerance="10"
   guidetolerance="10"
   inkscape:pageopacity="0"
   inkscape:pageshadow="2"
   inkscape:window-width="1324"
   inkscape:window-height="740"
   id="namedview87"
   showgrid="false"
   inkscape:zoom="0.7804233"
   inkscape:cx="26.346181"
   inkscape:cy="304.96271"
   inkscape:window-x="36"
   inkscape:window-y="0"
   inkscape:window-maximized="1"
   inkscape:current-layer="Capa_1" />
<g
   id="g6"
   style="fill:#1a1a1a">
	<g
   id="g4"
   style="fill:#1a1a1a">
		<path
   d="M204.8,97.6C191.2,84,172,75.2,151.2,75.2s-40,8.4-53.6,22.4c-13.6,13.6-22.4,32.8-22.4,53.6s8.8,40,22.4,53.6    c13.6,13.6,32.8,22.4,53.6,22.4s40-8.4,53.6-22.4c13.6-13.6,22.4-32.8,22.4-53.6S218.8,111.2,204.8,97.6z M190.4,190.4    c-10,10-24,16-39.2,16s-29.2-6-39.2-16s-16-24-16-39.2s6-29.2,16-39.2s24-16,39.2-16s29.2,6,39.2,16s16,24,16,39.2    S200.4,180.4,190.4,190.4z"
   id="path2"
   style="fill:#1a1a1a" />
	</g>
</g>
<g
   id="g12"
   style="fill:#1a1a1a">
	<g
   id="g10"
   style="fill:#1a1a1a">
		<path
   d="M292,140.8h-30.8c-5.6,0-10.4,4.8-10.4,10.4c0,5.6,4.8,10.4,10.4,10.4H292c5.6,0,10.4-4.8,10.4-10.4    C302.4,145.6,297.6,140.8,292,140.8z"
   id="path8"
   style="fill:#1a1a1a" />
	</g>
</g>
<g
   id="g18"
   style="fill:#333333">
	<g
   id="g16"
   style="fill:#333333">
		<path
   d="M151.2,250.8c-5.6,0-10.4,4.8-10.4,10.4V292c0,5.6,4.8,10.4,10.4,10.4c5.6,0,10.4-4.8,10.4-10.4v-30.8    C161.6,255.6,156.8,250.8,151.2,250.8z"
   id="path14"
   style="fill:#333333" />
	</g>
</g>
<g
   id="g24"
   style="fill:#1a1a1a">
	<g
   id="g22"
   style="fill:#1a1a1a">
		<path
   d="M258,243.6l-22-22c-3.6-4-10.4-4-14.4,0s-4,10.4,0,14.4l22,22c4,4,10.4,4,14.4,0S262,247.6,258,243.6z"
   id="path20"
   style="fill:#1a1a1a" />
	</g>
</g>
<g
   id="g30"
   style="fill:#1a1a1a">
	<g
   id="g28"
   style="fill:#1a1a1a">
		<path
   d="M151.2,0c-5.6,0-10.4,4.8-10.4,10.4v30.8c0,5.6,4.8,10.4,10.4,10.4c5.6,0,10.4-4.8,10.4-10.4V10.4    C161.6,4.8,156.8,0,151.2,0z"
   id="path26"
   style="fill:#1a1a1a" />
	</g>
</g>
<g
   id="g36"
   style="fill:#1a1a1a">
	<g
   id="g34"
   style="fill:#1a1a1a">
		<path
   d="M258.4,44.4c-4-4-10.4-4-14.4,0l-22,22c-4,4-4,10.4,0,14.4c3.6,4,10.4,4,14.4,0l22-22C262.4,54.8,262.4,48.4,258.4,44.4z"
   id="path32"
   style="fill:#1a1a1a" />
	</g>
</g>
<g
   id="g42"
   style="fill:#1a1a1a">
	<g
   id="g40"
   style="fill:#1a1a1a">
		<path
   d="M41.2,140.8H10.4c-5.6,0-10.4,4.8-10.4,10.4s4.4,10.4,10.4,10.4h30.8c5.6,0,10.4-4.8,10.4-10.4    C51.6,145.6,46.8,140.8,41.2,140.8z"
   id="path38"
   style="fill:#1a1a1a" />
	</g>
</g>
<g
   id="g48"
   style="fill:#1a1a1a">
	<g
   id="g46"
   style="fill:#1a1a1a">
		<path
   d="M80.4,221.6c-3.6-4-10.4-4-14.4,0l-22,22c-4,4-4,10.4,0,14.4s10.4,4,14.4,0l22-22C84.4,232,84.4,225.6,80.4,221.6z"
   id="path44"
   style="fill:#1a1a1a" />
	</g>
</g>
<g
   id="g54"
   style="fill:#1a1a1a">
	<g
   id="g52"
   style="fill:#1a1a1a">
		<path
   d="M80.4,66.4l-22-22c-4-4-10.4-4-14.4,0s-4,10.4,0,14.4l22,22c4,4,10.4,4,14.4,0S84.4,70.4,80.4,66.4z"
   id="path50"
   style="fill:#1a1a1a" />
	</g>
</g>
<g
   id="g56">
</g>
<g
   id="g58">
</g>
<g
   id="g60">
</g>
<g
   id="g62">
</g>
<g
   id="g64">
</g>
<g
   id="g66">
</g>
<g
   id="g68">
</g>
<g
   id="g70">
</g>
<g
   id="g72">
</g>
<g
   id="g74">
</g>
<g
   id="g76">
</g>
<g
   id="g78">
</g>
<g
   id="g80">
</g>
<g
   id="g82">
</g>
<g
   id="g84">
</g>
</svg>