<?xml version="1.0" encoding="UTF-8" standalone="no"?>
<svg
   xmlns:dc="http://purl.org/dc/elements/1.1/"
   xmlns:cc="http://creativecommons.org/ns#"
   xmlns:rdf="http://www.w3.org/1999/02/22-rdf-syntax-ns#"
   xmlns:svg="http://www.w3.org/2000/svg"
   xmlns="http://www.w3.org/2000/svg"
   xmlns:sodipodi="http://sodipodi.sourceforge.net/DTD/sodipodi-0.dtd"
   xmlns:inkscape="http://www.inkscape.org/namespaces/inkscape"
   id="Capa_1"
   enable-background="new 0 0 512 512"
   height="512"
   viewBox="0 0 512 512"
   width="512"
   version="1.1"
   sodipodi:docname="sunrise.svg"
   inkscape:version="0.92.5 (2060ec1f9f, 2020-04-08)">
  <metadata
     id="metadata25">
    <rdf:RDF>
      <cc:Work
         rdf:about="">
        <dc:format>image/svg+xml</dc:format>
        <dc:type
           rdf:resource="http://purl.org/dc/dcmitype/StillImage" />
      </cc:Work>
    </rdf:RDF>
  </metadata>
  <defs
     id="defs23" />
  <sodipodi:namedview
     pagecolor="#ffffff"
     bordercolor="#666666"
     borderopacity="1"
     objecttolerance="10"
     gridtolerance="10"
     guidetolerance="10"
     inkscape:pageopacity="0"
     inkscape:pageshadow="2"
     inkscape:window-width="1324"
     inkscape:window-height="740"
     id="namedview21"
     showgrid="false"
     inkscape:zoom="0.4609375"
     inkscape:cx="-67.254237"
     inkscape:cy="256"
     inkscape:window-x="36"
     inkscape:window-y="0"
     inkscape:window-maximized="1"
     inkscape:current-layer="Capa_1" />
  <g
     id="g18"
     transform="matrix(0.89004488,0,0,0.89004488,28,0)"
     style="stroke-width:1.12353885;fill:#1a1a1a">
    <g
       id="g14"
       style="stroke-width:1.12353885;fill:#1a1a1a">
      <path
         d="m 256,98.294 c 8.284,0 15,-6.716 15,-15 V 15 C 271,6.716 264.284,0 256,0 247.716,0 241,6.716 241,15 v 68.294 c 0,8.284 6.716,15 15,15 z"
         id="path2"
         inkscape:connector-curvature="0"
         style="stroke-width:1.12353885;fill:#1a1a1a" />
      <path
         d="m 497,241 h -68.294 c -8.284,0 -15,6.716 -15,15 0,8.284 6.716,15 15,15 H 497 c 8.284,0 15,-6.716 15,-15 0,-8.284 -6.716,-15 -15,-15 z"
         id="path4"
         inkscape:connector-curvature="0"
         style="stroke-width:1.12353885;fill:#1a1a1a" />
      <path
         d="m 98.294,256 c 0,-8.284 -6.716,-15 -15,-15 H 15 c -8.284,0 -15,6.716 -15,15 0,8.284 6.716,15 15,15 h 68.294 c 8.284,0 15,-6.716 15,-15 z"
         id="path6"
         inkscape:connector-curvature="0"
         style="stroke-width:1.12353885;fill:#1a1a1a" />
      <path
         d="m 395.924,131.91 c 3.838,0 7.678,-1.465 10.606,-4.394 l 36.853,-36.852 c 5.858,-5.857 5.858,-15.355 0,-21.213 -5.856,-5.858 -15.354,-5.858 -21.213,0 l -36.853,36.852 c -5.858,5.857 -5.858,15.355 0,21.213 2.929,2.929 6.768,4.394 10.607,4.394 z"
         id="path8"
         inkscape:connector-curvature="0"
         style="stroke-width:1.12353885;fill:#1a1a1a" />
      <path
         d="m 105.469,127.516 c 2.929,2.929 6.768,4.394 10.606,4.394 3.838,0 7.678,-1.464 10.606,-4.394 5.858,-5.858 5.858,-15.355 0,-21.213 L 89.829,69.451 c -5.857,-5.858 -15.355,-5.858 -21.213,0 -5.858,5.858 -5.858,15.355 0,21.213 z"
         id="path10"
         inkscape:connector-curvature="0"
         style="stroke-width:1.12353885;fill:#1a1a1a" />
      <path
         d="m 441.134,306.049 h -65.698 c 6.608,-15.765 10.063,-32.755 10.063,-50.049 0,-71.406 -58.093,-129.5 -129.499,-129.5 -71.406,0 -129.5,58.094 -129.5,129.5 0,17.259 3.447,34.279 10.052,50.049 H 70.866 c -8.284,0 -15,6.716 -15,15 0,8.284 6.716,15 15,15 h 370.268 c 8.284,0 15,-6.716 15,-15 0,-8.284 -6.716,-15 -15,-15 z M 156.5,256 c 0,-54.864 44.636,-99.5 99.5,-99.5 54.864,0 99.499,44.635 99.499,99.5 0,17.658 -4.667,34.9 -13.504,50.049 H 170.001 C 161.172,290.917 156.5,273.626 156.5,256 Z"
         id="path12"
         inkscape:connector-curvature="0"
         style="stroke-width:1.12353885;fill:#1a1a1a" />
    </g>
    <path
       d="M 350.229,364.614 H 161.77 c -8.284,0 -15,6.716 -15,15 0,8.284 6.716,15 15,15 h 188.46 c 8.284,0 15,-6.716 15,-15 0,-8.284 -6.716,-15 -15.001,-15 z"
       id="path16"
       inkscape:connector-curvature="0"
       style="stroke-width:1.12353885;fill:#1a1a1a" />
  </g>
</svg>
