<?xml version="1.0" encoding="UTF-8" standalone="no"?>
<!-- Created with Inkscape (http://www.inkscape.org/) -->

<svg
   xmlns:dc="http://purl.org/dc/elements/1.1/"
   xmlns:cc="http://creativecommons.org/ns#"
   xmlns:rdf="http://www.w3.org/1999/02/22-rdf-syntax-ns#"
   xmlns:svg="http://www.w3.org/2000/svg"
   xmlns="http://www.w3.org/2000/svg"
   xmlns:sodipodi="http://sodipodi.sourceforge.net/DTD/sodipodi-0.dtd"
   xmlns:inkscape="http://www.inkscape.org/namespaces/inkscape"
   version="1.1"
   id="svg2"
   width="48"
   height="48"
   viewBox="0 0 48 48"
   sodipodi:docname="zikrr.svg"
   inkscape:version="0.92.5 (2060ec1f9f, 2020-04-08)">
  <metadata
     id="metadata8">
    <rdf:RDF>
      <cc:Work
         rdf:about="">
        <dc:format>image/svg+xml</dc:format>
        <dc:type
           rdf:resource="http://purl.org/dc/dcmitype/StillImage" />
        <dc:title />
      </cc:Work>
    </rdf:RDF>
  </metadata>
  <defs
     id="defs6" />
  <sodipodi:namedview
     pagecolor="#ffffff"
     bordercolor="#666666"
     borderopacity="1"
     objecttolerance="10"
     gridtolerance="10"
     guidetolerance="10"
     inkscape:pageopacity="0"
     inkscape:pageshadow="2"
     inkscape:window-width="1324"
     inkscape:window-height="740"
     id="namedview4"
     showgrid="false"
     inkscape:zoom="6.9532167"
     inkscape:cx="-3.7520933"
     inkscape:cy="25.066406"
     inkscape:window-x="36"
     inkscape:window-y="0"
     inkscape:window-maximized="1"
     inkscape:current-layer="svg2" />
  <text
     xml:space="preserve"
     style="font-style:normal;font-variant:normal;font-weight:normal;font-stretch:normal;font-size:11px;line-height:1.25;font-family:'Arial Black';-inkscape-font-specification:'Arial Black, ';letter-spacing:0px;word-spacing:0px;fill:#000000;fill-opacity:1;stroke:none;"
     x="13.016949"
     y="23.389832"
     id="text819"><tspan
       sodipodi:role="line"
       id="tspan817"
       x="13.016949"
       y="59.252991" /></text>
  <text
     xml:space="preserve"
     style="font-style:normal;font-variant:normal;font-weight:normal;font-stretch:normal;font-size:4px;line-height:1.25;font-family:'Arial Black';-inkscape-font-specification:'Arial Black, ';letter-spacing:0px;word-spacing:0px;fill:#000000;fill-opacity:1;stroke:none;"
     x="12.20339"
     y="24.20339"
     id="text823"><tspan
       sodipodi:role="line"
       id="tspan821"
       x="12.20339"
       y="60.066547" /></text>
  <path
     style="font-style:normal;font-variant:normal;font-weight:normal;font-stretch:normal;font-size:15.39238358px;line-height:1.25;font-family:'Arial Black';-inkscape-font-specification:'Arial Black, ';letter-spacing:0px;word-spacing:0px;fill:#1a1a1a;fill-opacity:1;stroke:none;stroke-width:0.5371297"
     d="m 16.412285,21.083351 v 10.916747 a 22.68158,0.63297431 0 0 1 3.539636,-0.05673 V 21.083349 Z m 6.082419,0 v 10.83165 a 22.68158,0.63297431 0 0 1 3.531531,-0.02432 V 29.72273 l 1.82351,-1.910633 2.088932,4.072506 a 22.68158,0.63297431 0 0 1 4.297405,0.01418 l -3.975251,-6.503853 4.161655,-4.311588 h -4.6925 l -3.703751,4.319693 v -4.319693 z m 13.348093,0 v 10.827597 a 22.68158,0.63297431 0 0 1 3.54774,0.0385 v -4.074532 h 0.312023 c 0.322265,0 0.610462,0.08667 0.865155,0.263396 0.18712,0.135143 0.399129,0.429154 0.638228,0.881363 l 1.503383,2.783892 a 2.7266587,1.898923 0 0 1 2.125402,-0.711169 2.7266587,1.898923 0 0 1 1.746518,0.443721 L 45.377729,29.2 c -0.08317,-0.16633 -0.248931,-0.402473 -0.498426,-0.709143 -0.244298,-0.306671 -0.431291,-0.508198 -0.561236,-0.601759 -0.192319,-0.14034 -0.498837,-0.279066 -0.91986,-0.419407 0.524979,-0.119549 0.936488,-0.271928 1.237961,-0.453851 0.473001,-0.285879 0.846108,-0.65696 1.116394,-1.114367 0.270286,-0.462606 0.405224,-1.011079 0.405224,-1.645212 0,-0.727693 -0.177393,-1.343635 -0.530844,-1.847823 -0.353451,-0.509385 -0.819041,-0.858358 -1.395998,-1.045479 -0.576957,-0.187121 -1.410722,-0.279605 -2.502261,-0.279605 z m 3.54774,2.307754 h 1.549984 c 0.644528,0 1.085105,0.0983 1.319006,0.295813 0.233902,0.197517 0.350519,0.481927 0.350519,0.850971 0,0.249495 -0.07618,0.470223 -0.226926,0.662542 -0.145538,0.192319 -0.335439,0.311844 -0.56934,0.358625 -0.462605,0.103955 -0.77291,0.15601 -0.934043,0.15601 h -1.4892 z"
     id="text827"
     inkscape:connector-curvature="0" />
  <g
     id="g49"
     transform="matrix(1.572241,0,0,1.572241,-3.3040628,-10.259115)"
     style="stroke-width:0.63603479">
    <path
       id="path73"
       d="M 8.1509864,20.098096 C 7.9608315,19.58504 7.8644418,18.659797 7.8644418,18.116445 c 0,-0.543352 0.096393,-1.504088 0.2865633,-2.017144 0.078477,-0.211227 0.4272012,-0.211227 0.5056838,0 0.1901549,0.513056 0.2865446,1.473792 0.2865446,2.017144 0,0.543352 -0.096393,1.468595 -0.2865633,1.981651 -0.086932,0.234009 -0.4187331,0.233972 -0.5056838,0 z"
       inkscape:connector-curvature="0"
       style="fill:#0066ff;stroke-width:0.6360324" />
    <path
       id="path75"
       d="m 6.2557285,18.980845 c 0.1976707,0.342229 0.6034945,0.93614 1.0177147,1.384414 C 6.827057,20.20558 6.3457897,19.978351 6.032041,19.797221 5.5614899,19.525545 4.79321,18.970686 4.4439688,18.549472 c -0.1436769,-0.173595 0.030692,-0.475568 0.2528511,-0.437935 0.3752398,0.0639 0.9059876,0.271208 1.3538482,0.482867 0.074239,0.149251 0.1451514,0.282644 0.2050604,0.386441 z"
       inkscape:connector-curvature="0"
       style="fill:#003380;stroke-width:0.6360324" />
    <path
       id="path77"
       d="m 10.775616,19.797221 c -0.313748,0.18113 -0.7949975,0.408359 -1.2414202,0.568038 0.4142921,-0.448363 0.8200622,-1.042113 1.0174992,-1.383874 0.06001,-0.103996 0.131001,-0.237605 0.205295,-0.386964 0.447878,-0.211658 0.996588,-0.418966 1.371827,-0.482866 0.22216,-0.03765 0.396511,0.264322 0.252833,0.437917 -0.349222,0.421214 -1.135482,0.976073 -1.606034,1.247749 z"
       inkscape:connector-curvature="0"
       style="fill:#003380;stroke-width:0.6360324" />
    <g
       id="g41"
       style="stroke-width:0.63603479">
      <path
         style="fill:#0044aa;stroke-width:0.6360324"
         inkscape:connector-curvature="0"
         d="M 6.7230614,18.711345 C 6.4513856,18.240794 6.0635056,17.376123 5.9716465,16.836728 c -0.037632,-0.22216 0.2643401,-0.39651 0.4379359,-0.252852 0.2930359,0.242963 0.6490195,0.687875 0.9310692,1.095155 -0.010374,0.166421 -0.015602,0.31747 -0.015602,0.437396 0,0.394677 0.054348,1.11184 0.1891663,1.707638 C 7.2074195,19.462562 6.9042075,19.02513 6.7230602,18.711345 Z"
         id="path79" />
      <path
         style="fill:#0055d4;stroke-width:0.6360324"
         inkscape:connector-curvature="0"
         d="m 9.2935,19.824011 c 0.1347404,-0.595889 0.18913,-1.312926 0.18913,-1.707566 0,-0.119944 -0.00529,-0.270975 -0.015602,-0.437397 0.2820508,-0.407279 0.638034,-0.852192 0.931069,-1.095153 0.173596,-0.143677 0.475568,0.0307 0.437936,0.252851 -0.09186,0.539396 -0.479739,1.404065 -0.751415,1.874617 -0.1811468,0.313731 -0.4843236,0.751164 -0.7911126,1.112648 z"
         id="path81" />
    </g>
  </g>
  <text
     xml:space="preserve"
     style="font-style:normal;font-variant:normal;font-weight:normal;font-stretch:normal;font-size:18.5700016px;line-height:1.25;font-family:'Arial Black';-inkscape-font-specification:'Arial Black, ';letter-spacing:0px;word-spacing:0px;fill:#1a1a1a;fill-opacity:1;stroke:none;stroke-width:0.99999994;"
     x="4.7645397"
     y="31.927633"
     id="text29"><tspan
       sodipodi:role="line"
       id="tspan27"
       x="4.7645397"
       y="31.927633"
       style="font-style:normal;font-variant:normal;font-weight:normal;font-stretch:normal;font-family:'Arial Black';-inkscape-font-specification:'Arial Black, ';stroke-width:0.99999994;fill:#1a1a1a;">z</tspan></text>
</svg>
