<?xml version="1.0" encoding="UTF-8" standalone="no"?>
<!-- Generator: Adobe Illustrator 19.0.0, SVG Export Plug-In . SVG Version: 6.00 Build 0)  -->

<svg
   xmlns:dc="http://purl.org/dc/elements/1.1/"
   xmlns:cc="http://creativecommons.org/ns#"
   xmlns:rdf="http://www.w3.org/1999/02/22-rdf-syntax-ns#"
   xmlns:svg="http://www.w3.org/2000/svg"
   xmlns="http://www.w3.org/2000/svg"
   xmlns:sodipodi="http://sodipodi.sourceforge.net/DTD/sodipodi-0.dtd"
   xmlns:inkscape="http://www.inkscape.org/namespaces/inkscape"
   version="1.1"
   id="Capa_1"
   x="0px"
   y="0px"
   viewBox="0 0 512.001 512.001"
   style="enable-background:new 0 0 512.001 512.001;"
   xml:space="preserve"
   sodipodi:docname="cancel.svg"
   inkscape:version="0.92.5 (2060ec1f9f, 2020-04-08)"><metadata
   id="metadata43"><rdf:RDF><cc:Work
       rdf:about=""><dc:format>image/svg+xml</dc:format><dc:type
         rdf:resource="http://purl.org/dc/dcmitype/StillImage" /></cc:Work></rdf:RDF></metadata><defs
   id="defs41" /><sodipodi:namedview
   pagecolor="#ffffff"
   bordercolor="#666666"
   borderopacity="1"
   objecttolerance="10"
   gridtolerance="10"
   guidetolerance="10"
   inkscape:pageopacity="0"
   inkscape:pageshadow="2"
   inkscape:window-width="1324"
   inkscape:window-height="740"
   id="namedview39"
   showgrid="false"
   inkscape:zoom="0.46093662"
   inkscape:cx="-407.86519"
   inkscape:cy="256.00049"
   inkscape:window-x="36"
   inkscape:window-y="0"
   inkscape:window-maximized="1"
   inkscape:current-layer="Capa_1" />
<g
   id="g6"
   transform="matrix(1.3227127,0,0,1.3227127,-89.095299,-186.30584)"
   style="stroke-width:0.75602204;fill:#1e3a8a;fill-opacity:1">
	<g
   id="g4"
   style="stroke-width:0.75602204;fill:#1e3a8a;fill-opacity:1">
		<path
   d="M 282.01264,334.39419 447.6092,168.7969 c 5.83022,-5.83023 5.83022,-15.28278 0,-21.11225 -5.83022,-5.82947 -15.28277,-5.83021 -21.11224,0 L 260.89966,313.28196 95.303107,147.68465 c -5.830218,-5.83021 -15.28277,-5.83021 -21.112242,0 -5.829472,5.83022 -5.830219,15.28277 0,21.11225 L 239.78742,334.39346 74.190865,499.99075 c -5.830219,5.83022 -5.830219,15.28276 0,21.11224 2.914736,2.91474 6.735615,4.37172 10.556495,4.37172 3.820879,0 7.641011,-1.45698 10.556494,-4.37172 L 260.89966,355.50643 426.49621,521.10299 c 2.91474,2.91474 6.73562,4.37172 10.5565,4.37172 3.82088,0 7.641,-1.45698 10.55649,-4.37172 5.83022,-5.83022 5.83022,-15.28277 0,-21.11224 z"
   id="path2"
   inkscape:connector-curvature="0"
   style="stroke-width:0.75602204;fill:#1e3a8a;fill-opacity:1" />
	</g>
</g>
<g
   id="g8">
</g>
<g
   id="g10">
</g>
<g
   id="g12">
</g>
<g
   id="g14">
</g>
<g
   id="g16">
</g>
<g
   id="g18">
</g>
<g
   id="g20">
</g>
<g
   id="g22">
</g>
<g
   id="g24">
</g>
<g
   id="g26">
</g>
<g
   id="g28">
</g>
<g
   id="g30">
</g>
<g
   id="g32">
</g>
<g
   id="g34">
</g>
<g
   id="g36">
</g>
</svg>