<?xml version="1.0" encoding="UTF-8" standalone="no"?>
<svg
   height="512pt"
   viewBox="0 0 512 512"
   width="512pt"
   version="1.1"
   id="svg8"
   xmlns="http://www.w3.org/2000/svg"
   xmlns:svg="http://www.w3.org/2000/svg">
  <defs
     id="defs12" />
  <path
     d="m45 422h30c8.285156 0 15-6.714844 15-15v-151c0-8.285156-6.714844-15-15-15h-30c-24.851562 0-45 20.148438-45 45v91c0 24.851562 20.148438 45 45 45zm0 0"
     id="path2"
     style="fill:#ab00ff;fill-opacity:1" />
  <path
     d="m467 241h-30c-8.285156 0-15 6.714844-15 15v181c0 8.277344-6.722656 15-15 15h-77.761719c-6.214843-17.421875-22.707031-30-42.238281-30h-61c-24.8125 0-45 20.1875-45 45s20.1875 45 45 45h61c19.53125 0 36.023438-12.578125 42.238281-30h77.761719c24.8125 0 45-20.1875 45-45v-15h15c24.851562 0 45-20.148438 45-45v-91c0-24.851562-20.148438-45-45-45zm0 0"
     id="path4"
     style="fill:#ab00ff;fill-opacity:1" />
  <path
     d="m30.683594 212.449219c4.640625-.902344 9.414062-1.449219 14.316406-1.449219h30c5.507812 0 10.726562 1.132812 15.609375 2.953125 6.191406-85.480469 78.328125-153.953125 165.390625-153.953125s159.199219 68.472656 165.390625 153.953125c4.882813-1.820313 10.101563-2.953125 15.609375-2.953125h30c4.902344 0 9.675781.546875 14.316406 1.449219-7.042968-117.917969-105.628906-212.449219-225.316406-212.449219s-218.273438 94.53125-225.316406 212.449219zm0 0"
     id="path6"
     style="fill:#ab00ff;fill-opacity:1" />
</svg>
