<?xml version="1.0" encoding="UTF-8" standalone="no"?>
<!-- Generator: Adobe Illustrator 19.0.0, SVG Export Plug-In . SVG Version: 6.00 Build 0)  -->

<svg
   version="1.1"
   id="Capa_1"
   x="0px"
   y="0px"
   viewBox="0 0 512 512"
   style="enable-background:new 0 0 512 512;"
   xml:space="preserve"
   xmlns:xlink="http://www.w3.org/1999/xlink"
   xmlns="http://www.w3.org/2000/svg"
   xmlns:svg="http://www.w3.org/2000/svg"><defs
   id="defs59"><linearGradient
     id="linearGradient880"><stop
       style="stop-color:#000000;stop-opacity:1;"
       offset="0"
       id="stop876" /><stop
       style="stop-color:#000000;stop-opacity:0;"
       offset="1"
       id="stop878" /></linearGradient><linearGradient
     xlink:href="#linearGradient880"
     id="linearGradient882"
     x1="288"
     y1="144"
     x2="512"
     y2="144"
     gradientUnits="userSpaceOnUse" /><linearGradient
     xlink:href="#linearGradient880"
     id="linearGradient884"
     x1="0"
     y1="320"
     x2="160"
     y2="320"
     gradientUnits="userSpaceOnUse" /><linearGradient
     xlink:href="#linearGradient880"
     id="linearGradient886"
     x1="352"
     y1="356.976"
     x2="512"
     y2="356.976"
     gradientUnits="userSpaceOnUse" /><linearGradient
     xlink:href="#linearGradient880"
     id="linearGradient888"
     x1="192"
     y1="317.408"
     x2="320"
     y2="317.408"
     gradientUnits="userSpaceOnUse" /></defs>
<g
   id="g6"
   style="fill-opacity:1;fill:#ab00ff">
	<g
   id="g4"
   style="fill-opacity:1;fill:#ab00ff">
		<path
   d="M400,0c-61.76,0-112,50.24-112,112c0,57.472,89.856,159.264,100.096,170.688c3.04,3.36,7.36,5.312,11.904,5.312    s8.864-1.952,11.904-5.312C422.144,271.264,512,169.472,512,112C512,50.24,461.76,0,400,0z M400,160c-26.496,0-48-21.504-48-48    c0-26.496,21.504-48,48-48c26.496,0,48,21.504,48,48C448,138.496,426.496,160,400,160z"
   id="path2"
   style="fill-opacity:1;fill:#ab00ff" />
	</g>
</g>
<g
   id="g12"
   style="fill-opacity:1;fill:#ab00ff">
	<g
   id="g10"
   style="fill-opacity:1;fill:#ab00ff">
		<path
   d="M10.048,187.968C4,190.4,0,196.288,0,202.848V496c0,5.312,2.656,10.272,7.04,13.248C9.728,511.04,12.832,512,16,512    c2.016,0,4.032-0.384,5.952-1.152L160,455.616V128L10.048,187.968z"
   id="path8"
   style="fill-opacity:1;fill:#ab00ff" />
	</g>
</g>
<g
   id="g18"
   style="fill-opacity:1;fill:#ab00ff">
	<g
   id="g16"
   style="fill-opacity:1;fill:#ab00ff">
		<path
   d="M435.712,304.064C426.624,314.176,413.6,320,400,320c-13.6,0-26.624-5.824-35.712-15.936    c-3.264-3.616-7.456-8.384-12.288-14.048V512l149.952-59.968c6.08-2.4,10.048-8.32,10.048-14.848V201.952    C485.792,246.336,450.752,287.296,435.712,304.064z"
   id="path14"
   style="fill-opacity:1;fill:#ab00ff" />
	</g>
</g>
<g
   id="g24"
   style="fill-opacity:1;fill:#ab00ff">
	<g
   id="g22"
   style="fill-opacity:1;fill:#ab00ff">
		<path
   d="M266.08,157.632L192,128v327.616l128,51.2v-256.96C299.552,222.304,278.208,189.12,266.08,157.632z"
   id="path20"
   style="fill-opacity:1;fill:#ab00ff" />
	</g>
</g>
<g
   id="g26">
</g>
<g
   id="g28">
</g>
<g
   id="g30">
</g>
<g
   id="g32">
</g>
<g
   id="g34">
</g>
<g
   id="g36">
</g>
<g
   id="g38">
</g>
<g
   id="g40">
</g>
<g
   id="g42">
</g>
<g
   id="g44">
</g>
<g
   id="g46">
</g>
<g
   id="g48">
</g>
<g
   id="g50">
</g>
<g
   id="g52">
</g>
<g
   id="g54">
</g>
</svg>
