<?xml version="1.0" encoding="UTF-8" standalone="no"?>
<svg
   width="575.47681"
   height="447.29587"
   viewBox="0 0 575.47681 447.29587"
   version="1.1"
   id="svg31"
   xmlns="http://www.w3.org/2000/svg"
   xmlns:svg="http://www.w3.org/2000/svg">
  <defs
     id="defs35" />
  <path
     id="Path_514"
     data-name="Path 514"
     d="M 29.032,58.064 A 29.032,29.032 0 1 1 58.064,29.032 29.032,29.032 0 0 1 29.032,58.064 Z"
     fill="#6c63ff" />
  <path
     id="Path_515"
     data-name="Path 515"
     d="m 395.423,52.735 h -309.9 a 7.0235,7.0235 0 0 1 0,-14.047 h 309.9 a 7.0235,7.0235 0 0 1 0,14.047 z"
     fill="#cccccc" />
  <path
     id="Path_516"
     data-name="Path 516"
     d="M 294.458,22.886 H 85.516 a 7.0235,7.0235 0 1 1 0,-14.047 h 208.942 a 7.0235,7.0235 0 0 1 0,14.047 z"
     fill="#cccccc" />
  <path
     id="Path_517"
     data-name="Path 517"
     d="M 29.032,178.337 A 29.032,29.032 0 1 1 58.064,149.305 29.032,29.032 0 0 1 29.032,178.337 Z"
     fill="#e6e6e6" />
  <path
     id="Path_518"
     data-name="Path 518"
     d="m 395.423,173.009 h -309.9 a 7.0235,7.0235 0 1 1 0,-14.047 h 309.9 a 7.0235,7.0235 0 0 1 0,14.047 z"
     fill="#e6e6e6" />
  <path
     id="Path_519"
     data-name="Path 519"
     d="M 294.458,143.16 H 85.516 a 7.0235,7.0235 0 1 1 0,-14.047 h 208.942 a 7.0235,7.0235 0 0 1 0,14.047 z"
     fill="#e6e6e6" />
  <path
     id="Path_520"
     data-name="Path 520"
     d="m 29.032,298.61101 a 29.032,29.032 0 1 1 29.032,-29.032 29.032,29.032 0 0 1 -29.032,29.032 z"
     fill="#e6e6e6" />
  <path
     id="Path_521"
     data-name="Path 521"
     d="m 395.423,293.283 h -309.9 a 7.0235,7.0235 0 1 1 0,-14.047 h 309.9 a 7.0235,7.0235 0 1 1 0,14.047 z"
     fill="#e6e6e6" />
  <path
     id="Path_522"
     data-name="Path 522"
     d="M 294.458,263.43401 H 85.516 a 7.0235,7.0235 0 1 1 0,-14.04701 h 208.942 a 7.0235,7.0235 0 0 1 0,14.04701 z"
     fill="#e6e6e6" />
  <path
     id="Path_395"
     data-name="Path 395"
     d="m 27.55,39.244 a 3.321,3.321 0 0 1 -2,-0.664 l -0.036,-0.027 -7.525,-5.756 a 3.3440853,3.3440853 0 1 1 4.069,-5.308 l 4.874,3.738 11.517,-15.026 a 3.343,3.343 0 0 1 4.686,-0.619 v 0 l -0.071,0.1 0.073,-0.1 a 3.347,3.347 0 0 1 0.618,4.687 L 30.208,37.935 a 3.345,3.345 0 0 1 -2.66,1.3 z"
     fill="#ffffff" />
  <path
     d="m 527.38812,259.81318 a 6.7794414,6.7794414 0 0 1 7.93604,-6.71456 l 11.66527,-21.07938 5.80738,11.09097 -11.96788,18.31698 a 6.8161896,6.8161896 0 0 1 -13.44081,-1.61401 z"
     fill="#9e616a"
     id="path50"
     style="fill:#e4e4e4;fill-opacity:1;stroke-width:0.56147" />
  <path
     d="m 534.92497,174.66946 11.99581,-0.84164 c 0,0 1.47761,-0.20115 5.54127,6.24283 4.06367,6.44397 17.99312,39.12119 17.99312,39.12119 l -24.40385,35.42132 -7.9262,-7.89034 14.17035,-28.50207 -13.58228,-19.07571 z"
     fill="#cacaca"
     id="path52"
     style="stroke-width:0.56147" />
  <path
     d="m 402.67844,212.96237 a 5.8856478,5.8856478 0 0 0 7.87953,-4.40031 l 20.6926,-3.04643 -7.24134,-8.10527 -18.53986,4.13557 a 5.9175562,5.9175562 0 0 0 -2.79093,11.41644 z"
     fill="#9e616a"
     id="path54"
     style="fill:#e4e4e4;fill-opacity:1;stroke-width:0.56147" />
  <polygon
     points="325.007,732.606 301.764,732.607 301.766,793.352 317.515,793.352 "
     fill="#9e616a"
     id="polygon56"
     transform="matrix(-0.56147046,0,0,0.56147046,651.65219,-5.816575)"
     style="fill:#e4e4e4;fill-opacity:1" />
  <polygon
     points="230.007,732.606 206.764,732.607 206.766,793.352 222.515,793.352 "
     fill="#9e616a"
     id="polygon60"
     transform="matrix(-0.56147046,0,0,0.56147046,651.65219,-5.816575)"
     style="fill:#e4e4e4;fill-opacity:1" />
  <polygon
     points="337.838,542.227 326.287,488.162 212.841,494.222 202.432,556.966 205.932,758.659 231.551,758.659 270.911,545.313 299.224,755.152 324.983,754.037 "
     fill="#2f2e41"
     id="polygon64"
     transform="matrix(-0.56147046,0,0,0.56147046,651.65219,-5.816575)"
     style="fill:#00406f;fill-opacity:1" />
  <path
     d="m 479.29682,166.90722 15.39555,-2.26834 3.27338,-8.49889 21.68964,-0.0299 4.8735,11.09715 22.16404,6.69175 -18.36289,63.07973 c 0,0 10.11986,23.44226 7.63095,23.5427 -2.48892,0.10043 -3.71514,3.65937 -1.97909,5.52946 1.73604,1.87009 5.21935,0.68057 3.47769,3.52122 a 13.264397,13.264397 0 0 0 -1.9627,5.07326 c 0,0 -73.44039,15.67917 -69.37211,-4.53873 0.50573,-2.51326 6.64219,-37.33329 6.64219,-37.33329 0,0 -5.34351,-5.91263 -3.05972,-8.2624 2.28378,-2.34978 1.07775,-27.16637 1.07775,-27.16637 z"
     fill="#cacaca"
     id="path66"
     style="stroke-width:0.56147" />
  <polygon
     points="306.111,350.766 302.483,312.537 306.971,307.628 367.941,343.378 419.531,363.953 420.531,381.953 353.531,373.953 "
     fill="#cacaca"
     id="polygon68"
     transform="matrix(-0.56147046,0,0,0.56147046,651.65219,-5.816575)" />
  <path
     d="m 486.03541,133.19842 a 20.517581,20.517581 0 0 0 20.51759,20.51759 21.063821,21.063821 0 0 0 4.7987,-0.5614 20.525281,20.525281 0 1 0 -25.31629,-19.95621 z"
     fill="#9e616a"
     id="path70"
     style="fill:#e4e4e4;fill-opacity:1;stroke-width:0.635715" />
  <path
     d="m 503.71177,145.21868 13.01529,2.51025 a 8.4308888,8.4308888 0 0 0 3.71881,0.15428 c 1.93609,-0.50972 3.23354,-2.29641 4.224,-4.03631 a 38.222102,38.222102 0 0 0 4.06745,-26.84411 c -0.44452,-2.01856 -1.39483,-4.33118 -3.42045,-4.74233 -0.58842,-0.11944 -1.25389,-0.0723 -1.71966,-0.45119 -0.68594,-0.55803 -0.46019,-1.74093 0.21349,-2.3137 a 4.5800661,4.5800661 0 0 1 2.48473,-0.80759 6.2806086,6.2806086 0 0 0 -4.64493,-2.20929 l 3.48127,-1.93453 c -1.67685,-1.16354 -3.92973,-1.05721 -5.90787,-0.55451 -1.97814,0.5027 -3.88205,1.354 -5.91413,1.54453 -2.5514,0.23922 -5.06899,-0.58066 -7.6119,-0.89752 a 19.956036,19.956036 0 0 0 -19.2772,9.59486 8.6637138,8.6637138 0 0 0 -1.28054,3.60867 4.1500359,4.1500359 0 0 0 1.29547,3.48577 c 1.4252,1.19885 3.6702,1.02254 5.05084,2.27245 1.06411,0.96336 1.32906,2.51901 1.38918,3.95315 0.0601,1.43414 -0.008,2.93282 0.60653,4.23001 0.61455,1.29719 2.21857,2.27256 3.501,1.62776 0.0566,-1.77659 2.10436,-3.03439 3.8436,-2.66759 1.73923,0.36679 3.02373,1.94856 3.52416,3.65416 0.50043,1.70559 0.35191,3.52809 0.13395,5.29217 -0.21797,1.76407 -0.5012,3.5489 -0.25674,5.3095"
     fill="#2f2e41"
     id="path72"
     style="stroke-width:0.56147" />
</svg>
