<?xml version="1.0" encoding="UTF-8" standalone="no"?>
<!-- Created with Inkscape (http://www.inkscape.org/) -->

<svg
   xmlns:dc="http://purl.org/dc/elements/1.1/"
   xmlns:cc="http://creativecommons.org/ns#"
   xmlns:rdf="http://www.w3.org/1999/02/22-rdf-syntax-ns#"
   xmlns:svg="http://www.w3.org/2000/svg"
   xmlns="http://www.w3.org/2000/svg"
   xmlns:xlink="http://www.w3.org/1999/xlink"
   xmlns:sodipodi="http://sodipodi.sourceforge.net/DTD/sodipodi-0.dtd"
   xmlns:inkscape="http://www.inkscape.org/namespaces/inkscape"
   width="522.60052mm"
   height="201.4664mm"
   viewBox="0 0 313.5603 120.87983"
   version="1.1"
   id="svg5"
   sodipodi:docname="everest.svg"
   inkscape:version="0.92.5 (2060ec1f9f, 2020-04-08)">
  <metadata
     id="metadata7">
    <rdf:RDF>
      <cc:Work
         rdf:about="">
        <dc:format>image/svg+xml</dc:format>
        <dc:type
           rdf:resource="http://purl.org/dc/dcmitype/StillImage" />
        <dc:title></dc:title>
      </cc:Work>
    </rdf:RDF>
  </metadata>
  <sodipodi:namedview
     id="namedview6"
     pagecolor="#ffffff"
     bordercolor="#666666"
     borderopacity="1.0"
     inkscape:pageshadow="2"
     inkscape:pageopacity="0.0"
     inkscape:pagecheckerboard="0"
     inkscape:document-units="mm"
     showgrid="false"
     inkscape:zoom="1.1293443"
     inkscape:cx="291.43099"
     inkscape:cy="445.76151"
     inkscape:window-width="1324"
     inkscape:window-height="740"
     inkscape:window-x="36"
     inkscape:window-y="0"
     inkscape:window-maximized="1"
     inkscape:current-layer="svg5"
     fit-margin-top="-0.2"
     fit-margin-left="-0.6"
     fit-margin-right="0"
     fit-margin-bottom="0"
     scale-x="0.3" />
  <defs
     id="defs2">
    <inkscape:path-effect
       effect="bspline"
       id="path-effect860"
       is_visible="true"
       weight="33.333333"
       steps="2"
       helper_size="0"
       apply_no_weight="true"
       apply_with_weight="true"
       only_selected="false" />
    <inkscape:path-effect
       effect="bspline"
       id="path-effect848"
       is_visible="true"
       weight="33.333333"
       steps="2"
       helper_size="0"
       apply_no_weight="true"
       apply_with_weight="true"
       only_selected="false" />
    <linearGradient
       inkscape:collect="always"
       id="linearGradient840">
      <stop
         style="stop-color:#345e97;stop-opacity:1;"
         offset="0"
         id="stop836" />
      <stop
         style="stop-color:#345e97;stop-opacity:0;"
         offset="1"
         id="stop838" />
    </linearGradient>
    <linearGradient
       inkscape:collect="always"
       xlink:href="#linearGradient840"
       id="linearGradient842"
       x1="-34.715546"
       y1="139.16331"
       x2="244.46225"
       y2="139.16331"
       gradientUnits="userSpaceOnUse"
       gradientTransform="translate(11.732493,3.5708266)" />
  </defs>
  <g
     id="layer1"
     transform="rotate(180,128.02862,94.282999)"
     style="fill:#1e3a8a;fill-opacity:0.98039216;stroke:url(#linearGradient842);stroke-opacity:1" />
  <g
     style="fill:#1e3a8a;fill-opacity:0;stroke:#1e3a8a;stroke-opacity:0"
     transform="rotate(180,128.02862,94.283)"
     id="g834">
    <path
       sodipodi:nodetypes="ccssssscccc"
       inkscape:connector-curvature="0"
       transform="matrix(0.26458333,0,0,0.26458333,-34.324396,101.34577)"
       d="M 1.5281373,-20.262447 -0.9763488,211.66345 c 7.0409126,8.167 74.7795418,91.21523 108.0512388,102.11759 59.79352,19.59296 92.91485,-88.28893 194.6131,-96.15863 101.69825,-7.86966 236.90729,101.80598 303.64245,67.52011 66.73519,-34.28587 105.06527,-74.78383 161.30823,-69.56049 56.24292,5.22335 120.37628,31.12217 195.22656,11.94141 44.22037,-11.33167 92.14537,-38.39576 91.25777,-64.70899 h 0.039 l -7.5135,-193.094841 z"
       style="fill:#1e3a8a;fill-opacity:0;stroke:#1e3a8a;stroke-width:0.99999899px;stroke-linecap:butt;stroke-linejoin:miter;stroke-opacity:0"
       id="path832" />
  </g>
  <path
     id="path846"
     transform="scale(0.15874999)"
     style="fill:#1e3a8a;fill-opacity:1;stroke:none;stroke-width:0.99999988px;stroke-linecap:butt;stroke-linejoin:miter;stroke-opacity:1"
     d="m 948.46484,29.857422 c -3.13927,0.01575 -6.3339,0.07424 -9.58593,0.177734 -52.03182,1.656322 -119.11664,14.827823 -186.20118,28 l -21.41406,5.265625 c -21.41392,5.264259 -61.53374,15.126437 -107.64648,27.763672 -46.11286,12.637237 -96.86666,27.716367 -136.78516,36.759767 -39.9185,9.0434 -69.00368,12.0519 -95.23828,13.76367 -26.2346,1.71177 -49.61885,2.12728 -73.00195,2.54297 -85.66522,-10.45503 -171.33118,-20.91139 -226.18555,-15.78125 -54.854373,5.13012 -78.899027,25.84786 -88.71875,66.53906 -9.8197304,40.69121 -8.0690164,103.12975 -6.3048462,141.46821 1.76417655,38.33846 -0.8857231,50.8067 -1.9037516,116.70616 -1.0180536,65.89953 4.8492228,275.94087 4.8492228,275.94087 l -0.95507812,0.39257 c 0.0513186,0.21085 0.0711029,0.42241 0.0957031,0.63868 0.29498018,0.66097 0.2462356,1.36706 0.20703125,2.07031 -0.0186128,0.23446 -0.020009,0.46839 -0.0175781,0.70312 0.0318343,0.0397 0.0635546,0.0794 0.0957031,0.11914 0.22929016,0.69796 0.22937645,0.43108 0.15234375,1.10352 -0.01664315,0.14551 -0.0395057,0.11513 -0.04101562,0.22852 -0.001011,0.0762 0.00871,0.15097 0.0117187,0.22656 0.02443025,0.4611 0.0141402,0.92347 0.0117188,1.38476 -3.5668e-4,0.51339 2.4069e-4,1.026 0,1.53907 -0.0274381,0.20598 0.03511029,0.50116 0,0.69922 -0.0298178,0.16794 -0.0723869,0.33335 -0.109375,0.5 6.2e-5,0.0819 -1.348e-5,0.16406 0,0.24609 0.001208,0.0156 0.002638,0.0313 0.003906,0.0469 -2.0577e-4,0.25051 -0.00224,0.50126 -0.003906,0.75196 v 0.0234 c 4.47e-5,0.4 1.14e-5,0.79931 0,1.19922 -1.1e-6,0.0384 6.5e-7,0.0768 0,0.11524 -3.3e-6,0.25764 0,0.51592 0,0.77343 -4.01e-6,0.0391 2.36e-6,0.0781 0,0.11719 -3.762e-5,0.37418 -2.85e-6,0.74875 0,1.12305 v 0.20703 0.75977 0.83007 0.0996 0.74414 0.0684 0.15235 c 0,0.13984 0.0154003,0.28008 0,0.41992 v 0.68359 0.98633 0.93945 0.9004 c -10e-9,0.025 0.002097,0.0479 0,0.0723 0.001336,-0.0181 -0.003285,-0.0414 0.005859,-0.0488 0.0287225,-0.0252 0.0285794,0.0682 0.0390625,0.10352 0.08863138,0.29921 0.09713837,0.58713 0.0742188,0.89648 -0.0320806,0.26268 -0.0100657,0.52866 -0.007813,0.79297 -7.7902e-4,0.39622 -0.002361,0.79147 -0.001953,1.1875 3.6246e-4,0.22213 7.04e-5,0.44402 0,0.66602 0.14301487,0.39175 0.1398555,0.62045 0.10742187,1.04687 -0.00150937,-0.006 0.00112371,0.0151 0,0.0117 0.02271967,0.0635 0.0121289,-0.0122 0.07226562,0.21289 0.0716361,0.26898 0.06291716,0.40132 0.07226563,0.66992 -0.001182,-0.0155 -9.4772e-4,0.0238 -0.001953,0.0137 0.0201454,0.0567 0.0409645,0.1191 0.0566406,0.15429 0.17988285,0.40378 0.13542288,0.37528 0.19140625,0.86133 0.0279074,0.2211 -0.0704116,0.43445 -0.0761719,0.65234 -2.7945e-4,0.0126 0.005228,-0.0438 0.007813,-0.0312 0.0188976,0.075 0.008186,0.15495 0.0117187,0.23243 0.009849,0.43779 0.002055,0.8764 0.001953,1.31445 0.001204,0.26457 1.8255e-4,0.53035 0,0.79492 -1.2995e-4,0.2652 -3.15e-6,0.52954 0,0.79492 3.58e-6,0.30208 -0.0446858,0.55855 -0.1171875,0.77735 0.0487594,0.0601 0.0989067,0.1135 0.14648437,0.17968 0.0745781,0.19655 0.0711513,0.18442 0.10351563,0.26172 0.16355089,0.0324 0.37812134,0.12044 0.50390625,0.2168 0.89042472,0.25575 -0.39790794,-0.1131 0.68945312,0.16406 0.1036076,0.0252 0.2226369,0.0816 0.1132813,0.0312 -0.019591,-0.006 -0.080978,-0.0258 -0.060547,-0.0195 0.3596013,0.0567 0.7559411,0.12711 1.0546875,0.30664 0.033327,0.02 0.060674,0.0484 0.089844,0.0742 0.020616,-0.002 0.041644,-0.004 0.0625,-0.006 -0.020256,0.002 -0.03994,0.005 -0.060547,0.008 0.00314,0.003 0.00659,0.005 0.00977,0.008 0.093395,-0.0116 0.1797195,-0.0231 0.2929687,-0.0371 2.973786,-0.26348 5.7018557,-0.50785 6.5644532,-0.61524 16.4857575,0.0958 61.5011145,-0.16289 379.5507765,0.98242 324.55875,1.16851 956.51001,1.85219 1270.03911,3.13477 313.5289,1.28258 313.2164,-4.97997 314.6171,-4.33984 1.4009,0.64012 1.4004,1.92379 1.4004,-83.95704 V 331.91211 c 0,-86.51394 0,-86.51289 1.5391,-124.65625 1.5403,-38.14336 4.6208,-114.428617 -32.7617,-144.480469 -37.3824,-30.051857 -115.2283,-13.870476 -193.0742,2.310547 -34.5333,5.017663 -69.0659,10.035934 -111.2422,22.222656 -42.1763,12.186716 -91.9997,31.544006 -141.8203,50.900386 -41.6074,-12.47915 -83.2141,-24.95931 -117.5957,-23.20703 -34.3817,1.75228 -61.539,17.73748 -89.5079,15.59375 -27.9688,-2.14371 -56.7494,-22.41598 -94.5507,-39.187497 C 1158.517,74.636681 1111.6962,61.367157 1069.7949,49.802734 1030.5125,38.961089 995.55423,29.618228 948.46484,29.857422 Z M 0.96875,761.63086 c 0.0695294,0.0533 0.0740781,0.07 0.2734375,0.18945 0.04308,0.0252 -0.064164,-0.0784 -0.1054687,-0.10742 -0.05081,-0.0378 -0.1126101,-0.0568 -0.1679688,-0.082 z M 0.328125,729.00391 c -0.34580339,-0.30582 -0.66823369,-0.57557 -0.9921875,-0.84571 2.0936e-4,0.0143 -8.755e-5,0.0287 0,0.043 z m -2.0996094,27.58398 c 4.4e-6,0.003 -3.5e-6,0.007 0,0.01 -1.49e-5,0.007 1.36e-5,0.013 0,0.0195 0.0052,-6.1e-4 0.013207,-0.003 0.011719,-0.006 -0.00324,-0.008 -0.00792,-0.0157 -0.011719,-0.0234 z m 2.3574219,5.37109 c 6.758e-4,0.0664 -0.002096,0.0509 0.009766,0.2129 0.003986,0.0567 0.0174892,-0.11115 0.003906,-0.16407 -0.004147,-0.0162 -0.009542,-0.0324 -0.0136719,-0.0488 z m 2.4296875,0.36133 c 0.029548,0.027 0.06114,0.0508 0.091797,0.0762 -0.017751,-0.0189 -0.029837,-0.044 -0.052734,-0.0566 -0.012518,-0.007 -0.026479,-0.0121 -0.039063,-0.0195 z m -4.4726562,0.24414 c -0.012661,0.001 -0.020449,0.003 -0.033203,0.004 0.012952,-10e-4 0.020515,-8.2e-4 0.033203,-0.002 z M -1.5,762.56836 c -0.1365405,0.0139 -0.2073827,0.0174 -0.3554688,0.0332 0.1767001,-0.0145 0.2155915,-0.0193 0.3554688,-0.0312 z"
     inkscape:connector-curvature="0"
     sodipodi:nodetypes="ccccssscsssscccccccccccccccccsccccccccccsccccscccccccccccccccccccsccccccccccccccsscsscccscsssscccccccccccccccccccccccccccccccccc" />
</svg>
