<svg xmlns="http://www.w3.org/2000/svg" version="1.1" xmlns:xlink="http://www.w3.org/1999/xlink" xmlns:svgjs="http://svgjs.com/svgjs" width="1440" height="560" preserveAspectRatio="none" viewBox="0 0 1440 560"><g mask="url(&quot;#SvgjsMask1072&quot;)" fill="none"><rect width="1440" height="560" x="0" y="0" fill="#0e2a47"></rect><path d="M -1223.6972007066834,213 C -935.7,265.8 -359.7,481 216.30279929331675,477 C 792.3,473 1411.56,231.8 1656.3027992933166,193 C 1901.04,154.2 1483.26,265 1440,283" stroke="rgba(12, 74, 139, 0.58)" stroke-width="2"></path><path d="M -1136.9474591816452,319 C -848.95,295.4 -272.95,159 303.05254081835494,201 C 879.05,243 1515.66,555.4 1743.0525408183548,529 C 1970.44,502.6 1500.61,161 1440,69" stroke="rgba(12, 74, 139, 0.58)" stroke-width="2"></path><path d="M -1287.2401414986234,362 C -999.24,294 -423.24,-3.8 152.75985850137658,22 C 728.76,47.8 1335.31,450.6 1592.7598585013766,491 C 1850.21,531.4 1470.55,277.4 1440,224" stroke="rgba(12, 74, 139, 0.58)" stroke-width="2"></path><path d="M -1839.7110805100526,392 C -1551.71,336.4 -975.71,114.2 -399.7110805100527,114 C 176.29,113.8 672.35,387.2 1040.2889194899474,391 C 1408.23,394.8 1360.06,184.6 1440,133" stroke="rgba(12, 74, 139, 0.58)" stroke-width="2"></path><path d="M -1096.17654983883,547 C -808.18,461 -232.18,131 343.82345016117006,117 C 919.82,103 1564.59,479.6 1783.82345016117,477 C 2003.06,474.4 1508.76,178.6 1440,104" stroke="rgba(12, 74, 139, 0.58)" stroke-width="2"></path><path d="M -681.8375030871028,238 C -393.84,272.8 182.16,445 758.1624969128972,412 C 1334.16,379 2061.79,90.4 2198.162496912897,73 C 2334.53,55.6 1591.63,274.6 1440,325" stroke="rgba(12, 74, 139, 0.58)" stroke-width="2"></path><path d="M -282.1127529526159,156 C 5.89,195.6 581.89,353.8 1157.887247047384,354 C 1733.89,354.2 2541.46,159.8 2597.8872470473843,157 C 2654.31,154.2 1671.58,303.4 1440,340" stroke="rgba(12, 74, 139, 0.58)" stroke-width="2"></path></g><defs><mask id="SvgjsMask1072"><rect width="1440" height="560" fill="#ffffff"></rect></mask></defs></svg>